<svg width="37" height="37" viewBox="0 0 37 37" fill="none" xmlns="http://www.w3.org/2000/svg">
<path d="M11.6875 9.4375C9.78906 9.4375 8.3125 10.9844 8.3125 12.8125C8.3125 14.7109 9.78906 16.1875 11.6875 16.1875C13.5156 16.1875 15.0625 14.7109 15.0625 12.8125C15.0625 10.9844 13.5156 9.4375 11.6875 9.4375ZM32.4297 3.25H5.42969C2.96875 3.25 0.929688 5.28906 0.929688 7.75V30.25C0.929688 32.7812 2.96875 34.75 5.42969 34.75H32.4297C34.8906 34.75 36.9297 32.7812 36.9297 30.25V7.75C36.9297 5.28906 34.9609 3.25 32.4297 3.25ZM33.5547 29.8281L23.9219 16.75C23.7109 16.3984 23.3594 16.1875 22.9375 16.1875C22.4453 16.1875 22.0938 16.3984 21.8125 16.75L14.3594 26.875L11.7578 23.6406C11.4766 23.3594 11.125 23.1484 10.7031 23.1484C10.2812 23.1484 9.92969 23.3594 9.64844 23.6406L4.375 30.25L4.30469 7.75C4.30469 7.1875 4.86719 6.625 5.42969 6.625H32.4297C33.0625 6.625 33.5547 7.1875 33.5547 7.75V29.8281Z" fill="#8F90A6"/>
</svg>
