<svg width="18" height="22" viewBox="0 0 18 22" fill="none" xmlns="http://www.w3.org/2000/svg">
<path d="M17.6202 7.45C16.5802 2.82 12.5402 0.75 9.00024 0.75C9.00024 0.75 9.00024 0.75 8.99024 0.75C5.46024 0.75 1.43024 2.82 0.380239 7.44C-0.799761 12.6 2.36024 16.97 5.22024 19.73C6.28024 20.75 7.64024 21.26 9.00024 21.26C10.3602 21.26 11.7202 20.75 12.7702 19.73C15.6302 16.97 18.7902 12.61 17.6202 7.45ZM12.2802 8.28L8.28024 12.28C8.13024 12.43 7.94024 12.5 7.75024 12.5C7.56024 12.5 7.37024 12.43 7.22024 12.28L5.72024 10.78C5.43024 10.49 5.43024 10.01 5.72024 9.72C6.01024 9.43 6.49024 9.43 6.78024 9.72L7.75024 10.69L11.2202 7.22C11.5102 6.93 11.9902 6.93 12.2802 7.22C12.5702 7.51 12.5702 7.99 12.2802 8.28Z" fill="#28293D"/>
</svg>
