<svg width="24" height="25" viewBox="0 0 24 25" fill="none" xmlns="http://www.w3.org/2000/svg">
<path d="M16.7502 4.31V2.75C16.7502 2.34 16.4102 2 16.0002 2C15.5902 2 15.2502 2.34 15.2502 2.75V4.25H8.75023V2.75C8.75023 2.34 8.41023 2 8.00023 2C7.59023 2 7.25023 2.34 7.25023 2.75V4.31C4.55023 4.56 3.24023 6.17 3.04023 8.56C3.02023 8.85 3.26023 9.09 3.54023 9.09H20.4602C20.7502 9.09 20.9902 8.84 20.9602 8.56C20.7602 6.17 19.4502 4.56 16.7502 4.31Z" fill="#28293D"/>
<path d="M20 10.59H4C3.45 10.59 3 11.04 3 11.59V17.75C3 20.75 4.5 22.75 8 22.75H12.93C13.62 22.75 14.1 22.08 13.88 21.43C13.68 20.85 13.51 20.21 13.51 19.75C13.51 16.72 15.98 14.25 19.01 14.25C19.3 14.25 19.59 14.27 19.87 14.32C20.47 14.41 21.01 13.94 21.01 13.34V11.6C21 11.04 20.55 10.59 20 10.59ZM9.21 18.46C9.11 18.55 9 18.62 8.88 18.67C8.76 18.72 8.63 18.75 8.5 18.75C8.37 18.75 8.24 18.72 8.12 18.67C8 18.62 7.89 18.55 7.79 18.46C7.61 18.27 7.5 18.01 7.5 17.75C7.5 17.69 7.51 17.62 7.52 17.56C7.53 17.49 7.55 17.43 7.58 17.37C7.6 17.31 7.63 17.25 7.67 17.19C7.7 17.14 7.75 17.09 7.79 17.04C7.89 16.95 8 16.88 8.12 16.83C8.36 16.73 8.64 16.73 8.88 16.83C9 16.88 9.11 16.95 9.21 17.04C9.25 17.09 9.3 17.14 9.33 17.19C9.37 17.25 9.4 17.31 9.42 17.37C9.45 17.43 9.47 17.49 9.48 17.56C9.49 17.62 9.5 17.69 9.5 17.75C9.5 18.01 9.39 18.27 9.21 18.46ZM9.21 14.96C9.11 15.05 9 15.12 8.88 15.17C8.76 15.22 8.63 15.25 8.5 15.25C8.37 15.25 8.24 15.22 8.12 15.17C7.99 15.12 7.89 15.05 7.79 14.96C7.61 14.77 7.5 14.51 7.5 14.25C7.5 13.99 7.61 13.73 7.79 13.54C7.89 13.45 8 13.38 8.12 13.33C8.36 13.23 8.64 13.23 8.88 13.33C9 13.38 9.11 13.45 9.21 13.54C9.25 13.59 9.3 13.64 9.33 13.69C9.37 13.75 9.4 13.81 9.42 13.87C9.45 13.93 9.47 13.99 9.48 14.05C9.49 14.12 9.5 14.19 9.5 14.25C9.5 14.51 9.39 14.77 9.21 14.96ZM12.71 14.96C12.52 15.14 12.27 15.25 12 15.25C11.87 15.25 11.74 15.22 11.62 15.17C11.49 15.12 11.39 15.05 11.29 14.96C11.11 14.77 11 14.51 11 14.25C11 14.19 11.01 14.12 11.02 14.05C11.03 13.99 11.05 13.93 11.08 13.87C11.1 13.81 11.13 13.75 11.17 13.69C11.21 13.64 11.25 13.59 11.29 13.54C11.66 13.17 12.33 13.17 12.71 13.54C12.75 13.59 12.79 13.64 12.83 13.69C12.87 13.75 12.9 13.81 12.92 13.87C12.95 13.93 12.97 13.99 12.98 14.05C12.99 14.12 13 14.19 13 14.25C13 14.51 12.89 14.77 12.71 14.96Z" fill="#28293D"/>
<path d="M21.83 16.92C20.27 15.36 17.73 15.36 16.17 16.92C14.61 18.48 14.61 21.02 16.17 22.58C17.73 24.14 20.27 24.14 21.83 22.58C23.39 21.02 23.39 18.48 21.83 16.92ZM21.07 20.31C20.94 20.45 20.75 20.53 20.54 20.53H19.8V21.31C19.8 21.52 19.72 21.7 19.58 21.84C19.44 21.98 19.26 22.06 19.05 22.06C18.64 22.06 18.3 21.72 18.3 21.31V20.53H17.55C17.14 20.53 16.8 20.2 16.8 19.78C16.8 19.37 17.14 19.03 17.55 19.03H18.3V18.32C18.3 17.91 18.63 17.57 19.05 17.57C19.46 17.57 19.8 17.91 19.8 18.32V19.03H20.54C20.96 19.03 21.29 19.37 21.29 19.78C21.29 19.99 21.21 20.18 21.07 20.31Z" fill="#28293D"/>
</svg>
