<svg width="39" height="39" viewBox="0 0 39 39" fill="none" xmlns="http://www.w3.org/2000/svg">
<path d="M17.0625 13H21.9375M10.985 35.75H28.015C32.5 35.75 34.2875 33.0037 34.4988 29.6562L35.3438 16.2337C35.3964 15.4015 35.2779 14.5672 34.9953 13.7826C34.7128 12.998 34.2724 12.2796 33.7013 11.672C33.1302 11.0643 32.4405 10.5802 31.6749 10.2496C30.9092 9.91905 30.084 9.749 29.25 9.75C28.2588 9.75 27.3488 9.18125 26.8938 8.30375L25.7238 5.9475C24.9763 4.46875 23.0263 3.25 21.3688 3.25H17.6475C15.9738 3.25 14.0238 4.46875 13.2763 5.9475L12.1063 8.30375C11.6513 9.18125 10.7413 9.75 9.75003 9.75C6.22378 9.75 3.42878 12.7237 3.65628 16.2337L4.50128 29.6562C4.69628 33.0037 6.50003 35.75 10.985 35.75Z" stroke="white" stroke-width="1.5" stroke-linecap="round" stroke-linejoin="round"/>
<path d="M19.5 29.25C22.4087 29.25 24.7812 26.8775 24.7812 23.9688C24.7812 21.06 22.4087 18.6875 19.5 18.6875C16.5913 18.6875 14.2188 21.06 14.2188 23.9688C14.2188 26.8775 16.5913 29.25 19.5 29.25Z" stroke="white" stroke-width="1.5" stroke-linecap="round" stroke-linejoin="round"/>
</svg>
