<svg width="24" height="25" viewBox="0 0 24 25" fill="none" xmlns="http://www.w3.org/2000/svg">
<path d="M21.0602 12.07L20.9002 11.85C20.6202 11.51 20.2902 11.24 19.9102 11.04C19.4002 10.75 18.8202 10.6 18.2202 10.6H5.7702C5.1702 10.6 4.6002 10.75 4.0802 11.04C3.6902 11.25 3.3402 11.54 3.0502 11.9C2.4802 12.63 2.2102 13.53 2.3002 14.43L2.6702 19.1C2.8002 20.51 2.9702 22.25 6.1402 22.25H17.8602C21.0302 22.25 21.1902 20.51 21.3302 19.09L21.7002 14.44C21.7902 13.6 21.5702 12.76 21.0602 12.07ZM14.3902 17.59H9.6002C9.2102 17.59 8.9002 17.27 8.9002 16.89C8.9002 16.51 9.2102 16.19 9.6002 16.19H14.3902C14.7802 16.19 15.0902 16.51 15.0902 16.89C15.0902 17.28 14.7802 17.59 14.3902 17.59Z" fill="#28293D"/>
<path d="M20.561 8.84643C20.5986 9.22928 20.1833 9.48561 19.8185 9.36348C19.3137 9.19449 18.7824 9.11 18.2299 9.11H5.76988C5.21304 9.11 4.66478 9.20012 4.15322 9.37194C3.79283 9.49298 3.37988 9.24507 3.37988 8.86489V6.91C3.37988 3.34 4.46988 2.25 8.03988 2.25H9.21988C10.6499 2.25 11.0999 2.71 11.6799 3.46L12.8799 5.06C13.1299 5.4 13.1399 5.42 13.5799 5.42H15.9599C19.0856 5.42 20.3069 6.25724 20.561 8.84643Z" fill="#28293D"/>
</svg>
