<svg width="24" height="24" viewBox="0 0 24 24" fill="none" xmlns="http://www.w3.org/2000/svg">
<path d="M19.7906 4.21995C16.8306 1.26995 12.0306 1.26995 9.09063 4.21995C7.02063 6.26995 6.40063 9.21995 7.20063 11.8199L2.50063 16.5199C2.17063 16.8599 1.94063 17.5299 2.01063 18.0099L2.31063 20.1899C2.42063 20.9099 3.09063 21.5899 3.81063 21.6899L5.99063 21.9899C6.47063 22.0599 7.14063 21.8399 7.48063 21.4899L8.30063 20.6699C8.50063 20.4799 8.50063 20.1599 8.30063 19.9599L6.36063 18.0199C6.07063 17.7299 6.07063 17.2499 6.36063 16.9599C6.65063 16.6699 7.13063 16.6699 7.42063 16.9599L9.37063 18.9099C9.56063 19.0999 9.88063 19.0999 10.0706 18.9099L12.1906 16.7999C14.7806 17.6099 17.7306 16.9799 19.7906 14.9299C22.7406 11.9799 22.7406 7.16995 19.7906 4.21995ZM14.5006 11.9999C13.1206 11.9999 12.0006 10.8799 12.0006 9.49995C12.0006 8.11995 13.1206 6.99995 14.5006 6.99995C15.8806 6.99995 17.0006 8.11995 17.0006 9.49995C17.0006 10.8799 15.8806 11.9999 14.5006 11.9999Z" fill="#292D32"/>
</svg>
