<svg width="16" height="16" viewBox="0 0 16 16" fill="none" xmlns="http://www.w3.org/2000/svg">
<path d="M1.52637 5.18649V11.6732C1.52637 12.9398 2.42637 13.4598 3.5197 12.8332L5.08637 11.9398C5.42637 11.7465 5.99303 11.7265 6.34637 11.9065L9.84637 13.6598C10.1997 13.8332 10.7664 13.8198 11.1064 13.6265L13.993 11.9732C14.3597 11.7598 14.6664 11.2398 14.6664 10.8132V4.32649C14.6664 3.05982 13.7664 2.53982 12.673 3.16649L11.1064 4.05982C10.7664 4.25315 10.1997 4.27315 9.84637 4.09315L6.34637 2.34649C5.99303 2.17315 5.42637 2.18649 5.08637 2.37982L2.1997 4.03315C1.82637 4.24649 1.52637 4.76649 1.52637 5.18649Z" stroke="#C7C9D9" stroke-width="1.5" stroke-linecap="round" stroke-linejoin="round"/>
<path d="M5.70703 2.6665V11.3332" stroke="#C7C9D9" stroke-width="1.5" stroke-linecap="round" stroke-linejoin="round"/>
<path d="M10.4863 4.41357V13.3336" stroke="#C7C9D9" stroke-width="1.5" stroke-linecap="round" stroke-linejoin="round"/>
</svg>
