<svg width="50" height="50" viewBox="0 0 50 50" fill="none" xmlns="http://www.w3.org/2000/svg">
<mask id="mask0_483_18126" style="mask-type:luminance" maskUnits="userSpaceOnUse" x="0" y="0" width="50" height="50">
<path d="M50 0H0V50H50V0Z" fill="white"/>
</mask>
<g mask="url(#mask0_483_18126)">
<path d="M29.0039 8.33278C29.0039 8.33278 40.7432 10.1653 39.853 26.8534C39.8498 26.9152 41.2104 27.8164 41.3169 27.9127C42.2657 28.7687 43.0616 29.865 43.4097 31.1474C44.6491 35.7141 40.2178 40.4194 36.6344 41.6684C35.2958 42.1348 33.8811 42.3613 32.4635 42.4024C23.2481 42.6702 11.0474 36.827 10.4208 25.4155C10.3985 25.0065 10.3927 24.5968 10.4034 24.1873C10.4589 22.0206 10.9831 19.9104 11.7731 17.951C11.7727 17.9511 16.9016 5.2599 29.0039 8.33278Z" fill="#8C5A2B"/>
<g style="mix-blend-mode:multiply" opacity="0.1">
<path d="M40.15 27.0293C40.0229 27.3401 39.8959 27.7372 39.8604 27.9643C39.7091 28.9384 40.0432 29.9444 40.6235 30.6675C41.1746 31.3542 41.9616 31.7995 42.7237 31.9674C42.981 32.0241 43.2926 32.0532 43.565 32.0623C43.2788 29.2412 40.9763 27.5485 40.15 27.0293ZM23.6022 34.444C25.7828 33.976 27.1366 31.6839 26.6261 29.3246C26.1155 26.9652 23.934 25.4319 21.7534 25.9C19.5729 26.368 18.219 28.66 18.7295 31.0194C19.24 33.3788 21.4216 34.912 23.6022 34.444Z" fill="#DC2400"/>
</g>
<path opacity="0.1" d="M34.2776 27.8448C34.2776 27.8448 36.1398 26.0771 37.5814 27.739L34.2776 27.8448Z" fill="black"/>
<path d="M16.914 36.6524C10.715 39.7518 5.0887 31.9796 6.89087 27.6106C8.04043 24.8238 11.3923 24.6071 13.3345 27.1527C14.4808 28.655 15.4082 30.5755 15.9349 32.4125" fill="#8C5A2B"/>
<path opacity="0.1" d="M11.8083 29.7164C12.6059 30.5261 13.2471 31.7269 14.0351 32.3967C13.8895 31.2759 13.657 30.079 13.1113 29.069C12.5572 28.0431 11.5495 27.198 10.5235 27.2677C9.25211 27.3541 8.20521 28.8315 8.07056 30.171C8.15097 29.3694 9.76729 28.8269 10.3842 28.9028C11.3502 30.7193 11.7242 34.2993 11.7242 34.2993C12.529 32.2726 12.2031 30.6785 11.8083 29.7164Z" fill="black"/>
<path d="M29.7001 30.4979C32.1613 29.0395 34.2661 28.9467 35.7492 28.8553C38.7154 28.6724 41.1915 29.644 41.8476 32.6584C42.4527 35.4382 40.3475 37.0606 39.3727 37.0312C38.3979 37.0018 38.1934 35.9348 35.8727 35.8825C33.552 35.8302 30.2331 39.7059 28.2589 38.2508C26.2847 36.7959 26.6236 32.321 29.7001 30.4979Z" fill="#873C41"/>
<mask id="mask1_483_18126" style="mask-type:alpha" maskUnits="userSpaceOnUse" x="27" y="28" width="15" height="11">
<path d="M29.7034 30.4949C32.1678 29.0388 34.2753 28.9462 35.7603 28.8548C38.7304 28.6721 41.2096 29.6419 41.8665 32.651C42.4722 35.4261 40.3641 37.0458 39.3881 37.0165C38.412 36.9872 38.2074 35.9219 35.8836 35.8699C33.5599 35.8178 30.2366 39.6869 28.2599 38.2346C26.2832 36.7823 26.6227 32.315 29.7034 30.4949Z" fill="#873C41"/>
</mask>
<g mask="url(#mask1_483_18126)">
<path d="M40.3134 36.3762C37.9872 34.8827 35.3415 34.2821 32.7132 33.9863C30.4651 33.7333 27.9856 33.7468 25.9272 34.7425C27.3048 36.723 26.9868 38.9732 29.1764 39.3791C32.5698 40.0078 38.2602 38.7115 40.8617 36.7564C40.6794 36.6292 40.5002 36.4962 40.3134 36.3762Z" fill="#EE7E8B"/>
<path d="M28.6107 31.7998C29.7006 32.003 30.7911 31.643 31.6651 31.0523C31.8321 30.9392 32.0394 31.0358 32.154 31.195C33.3298 32.8315 36.3529 32.7476 37.2298 31.063C37.2978 30.9323 37.4726 30.8395 37.6208 30.8999C38.6043 31.3019 39.827 31.0386 40.4927 30.2484C41.4325 29.1325 40.7146 27.3052 39.8937 26.1577C38.967 26.8887 38.3676 28.6154 38.1247 28.5783C38.1214 28.5778 29.6321 27.2945 26.5388 30.1548C26.96 31.0079 27.6666 31.6237 28.6107 31.7998Z" fill="white"/>
</g>
<path d="M37.7603 23.5914C38.1074 23.7508 38.5857 23.9401 39.0562 24.0504C39.1978 24.3285 39.2786 24.6597 39.2778 24.965C39.2759 25.674 38.9521 26.4357 38.1247 26.3487C37.4303 26.2757 37.2535 25.371 37.2547 24.9256C37.2561 24.3813 37.4487 23.8579 37.7603 23.5914ZM28.3509 24.2826C28.3155 24.459 28.2977 24.6386 28.2979 24.8185C28.2949 25.9278 28.8485 26.5096 29.6806 26.7302C30.8366 26.9055 31.3938 26.0467 31.3965 24.9889C31.3981 24.3742 31.1409 23.7676 30.7395 23.3677C30.2407 23.7494 29.4544 24.1429 28.3509 24.2826Z" fill="#2A1200"/>
<path d="M30.9014 19.4024C29.6803 19.5821 28.5736 20.411 28.0174 21.5563C27.8381 21.9256 27.9224 22.4529 28.3054 22.684C28.6595 22.898 29.1612 22.8386 29.353 22.4429C29.4098 22.3247 29.4734 22.2098 29.5435 22.0988C29.5653 22.0644 29.634 21.994 29.6483 21.9488C29.6597 21.9347 29.6709 21.9206 29.6828 21.9067C29.7555 21.8205 29.8327 21.7381 29.9138 21.6597C29.9601 21.6152 30.0076 21.572 30.0563 21.5302C30.0717 21.5171 30.0872 21.5044 30.1031 21.4915C30.1496 21.4673 30.1979 21.4226 30.239 21.3959C30.3862 21.3009 30.541 21.2182 30.7017 21.1488C30.7161 21.1426 30.7302 21.1368 30.7447 21.131C30.8017 21.1132 30.8582 21.0941 30.916 21.0783C31.0391 21.0453 31.164 21.0196 31.2902 21.0013C31.6848 20.9433 31.9568 20.4503 31.8392 20.0409C31.7092 19.5905 31.3242 19.3404 30.9014 19.4024ZM39.8367 21.4246C39.5575 20.7256 39.0256 20.1785 38.3743 19.8937C38.1984 19.8169 37.9665 19.833 37.7924 19.9191C37.6208 20.004 37.4486 20.1865 37.386 20.3819C37.3211 20.5847 37.3057 20.8161 37.3933 21.0107C37.4821 21.2081 37.6193 21.3539 37.8101 21.4376C37.8413 21.4512 37.8707 21.4685 37.9014 21.4838C37.9889 21.5414 38.0718 21.6058 38.1493 21.6763C38.2349 21.7726 38.3116 21.8765 38.3783 21.9867C38.3987 22.0292 38.4212 22.0707 38.439 22.115C38.5157 22.3063 38.6749 22.4692 38.8558 22.5419C39.0288 22.6114 39.2665 22.6104 39.4377 22.5162C39.615 22.4187 39.7772 22.2624 39.8441 22.0535C39.9109 21.8452 39.9178 21.627 39.8367 21.4246Z" fill="#71472D"/>
<path d="M32.7697 13.5188C33.4821 16.8025 37.1916 18.367 38.9574 18.7389C39.5628 20.8449 39.7142 25.149 39.7142 26.9933C41.388 27.8856 42.4 29.2093 42.6968 29.8042C42.4223 28.7036 42.5657 28.1476 42.7835 27.3038C42.8836 26.9162 42.9993 26.4677 43.0974 25.8778C43.3743 24.2126 41.6477 22.0542 40.7285 20.9052C40.6268 20.7788 40.5261 20.6516 40.4264 20.5236C40.0575 20.045 40.1753 19.0044 40.3052 17.8565C40.4417 16.6501 40.5917 15.3255 40.2038 14.4109C39.4471 12.6262 36.9986 11.0645 35.7077 10.9307C35.1769 10.8756 34.8719 10.5416 34.4339 10.062C33.8063 9.37468 32.9057 8.38844 30.6773 7.49509C27.7622 6.32636 24.9159 7.18785 23.7286 7.82437C15.0639 8.5695 11.8835 17.4599 11.7196 17.9181C11.7161 17.9279 11.714 17.9339 11.7132 17.9358C10.9259 19.9006 10.4702 22.0351 10.4148 24.208C10.4043 24.618 10.4098 25.0291 10.4322 25.4396C13.8234 26.0172 15.4295 29.6608 15.8087 31.4105C15.8087 31.4105 16.8177 31.47 17.0552 31.2766C18.3016 30.6222 20.5186 27.9392 19.4146 22.4422C18.8804 19.9436 19.2365 17.9541 23.5991 14.8571C26.3071 12.9347 30.0097 12.9519 32.7697 13.5188ZM42.2071 36.9877C42.5632 36.3334 43.3467 34.6408 43.4536 33.2844C43.9432 33.7455 44.9582 35.0067 45.1007 36.3631C45.1984 37.2944 44.7859 38.1179 44.4311 38.8264C44.1398 39.4078 43.8874 39.9117 43.9878 40.3341C44.1658 41.0837 44.5665 41.5685 44.7445 41.7173C43.5277 42.2676 40.284 43.0558 37.5774 41.2711C38.4612 40.8249 40.6957 39.2722 42.2071 36.9877Z" fill="#D56C0C"/>
<path d="M32.7696 13.5184C32.0128 11.7783 29.1192 8.21775 23.5991 7.8965C23.6398 7.87285 23.683 7.84867 23.7286 7.82422C15.0638 8.56934 11.8835 17.4598 11.7196 17.9179C11.7161 17.9277 11.714 17.9337 11.7132 17.9356C10.9259 19.9004 10.4702 22.0349 10.4148 24.2079C10.4043 24.6179 10.4098 25.0289 10.4322 25.4395C13.8234 26.017 15.4295 29.6606 15.8087 31.4103C15.8087 31.4103 16.8177 31.4698 17.0552 31.2765C18.3016 30.6221 20.5186 27.939 19.4146 22.442C18.8804 19.9434 19.2365 17.954 23.5991 14.8569C26.3071 12.9346 30.0097 12.9517 32.7697 13.5187L32.7696 13.5184Z" fill="black" fill-opacity="0.3"/>
<mask id="mask2_483_18126" style="mask-type:alpha" maskUnits="userSpaceOnUse" x="23" y="6" width="23" height="37">
<path d="M23.5991 7.89663C29.1192 8.21788 32.0128 11.7784 32.7696 13.5185C33.4818 16.8024 37.1916 18.367 38.9574 18.7389C39.5628 20.8448 39.7142 25.149 39.7142 26.9932C41.388 27.8856 42.4 29.2092 42.6968 29.8042C42.2961 28.1979 42.7858 27.7517 43.0974 25.8778C43.409 24.0038 41.1832 21.5052 40.4264 20.5236C39.6696 19.542 40.9606 16.1956 40.2038 14.4109C39.4471 12.6262 36.9986 11.0645 35.7077 10.9307C34.4167 10.7968 34.4612 9.01209 30.6773 7.49507C27.6501 6.28145 24.6972 7.25707 23.5991 7.89663ZM43.4536 33.2844C43.3467 34.6408 42.5632 36.3333 42.2071 36.9877C40.6957 39.2722 38.4612 40.8249 37.5774 41.2711C40.284 43.0558 43.5277 42.2676 44.7445 41.7172C44.5665 41.5685 44.1658 41.0837 43.9878 40.3341C43.7652 39.3971 45.2787 38.0586 45.1007 36.3631C44.9582 35.0067 43.9432 33.7455 43.4536 33.2844Z" fill="#238D81" fill-opacity="0.15"/>
</mask>
<g mask="url(#mask2_483_18126)">
<g style="mix-blend-mode:multiply">
<path d="M35.4406 15.7939C34.3366 14.9373 33.6154 13.4738 33.3928 12.8491C33.7044 13.4316 34.8174 14.8361 36.7761 15.7939C38.7348 16.7518 39.462 17.8291 39.5806 18.2479C38.8684 16.954 36.8206 16.8648 35.4406 15.7939ZM41.851 26.4131C41.9222 25.6278 41.6729 24.6283 41.5394 24.2268C41.5394 24.658 41.4949 25.6992 41.3168 26.4131C41.1387 27.127 40.6787 27.6921 40.471 27.8855L41.851 28.7778C41.2723 27.9747 41.762 27.3947 41.851 26.4131ZM43.8988 37.5676C44.2905 36.7109 44.062 35.9018 43.8988 35.6044C43.8988 37.3445 43.1865 37.2999 42.4742 38.7277C41.762 40.1555 42.2962 41.5833 41.851 41.3602C41.4949 41.1817 41.3464 40.7504 41.3168 40.557C41.1387 41.6636 41.391 42.5649 41.5394 42.8772C42.7858 43.02 43.6317 42.2822 43.8988 41.8956C42.7858 40.2447 43.4091 38.6385 43.8988 37.5676Z" fill="black" fill-opacity="0.15"/>
</g>
</g>
<g style="mix-blend-mode:multiply">
<path d="M24.5039 24.8189C24.8337 26.2313 25.4985 27.5202 26.6655 27.9639C29.2474 28.9455 32.9868 28.2316 33.521 27.6516C33.71 27.4464 33.9712 26.7226 34.2064 25.8329C35.7271 24.9765 37.0388 25.4404 37.4747 25.7407C37.5873 26.4349 37.7082 26.9869 37.7973 27.1515C38.0685 27.6523 39.9665 28.2686 41.277 27.4212C42.5876 26.5737 42.6327 21.4508 42.3842 20.9116C42.0819 20.2559 37.4277 20.5682 37.2324 21.7974C37.1004 22.1725 37.1666 23.3327 37.3005 24.4825C36.5884 24.2445 35.5987 24.1445 34.5066 24.525C34.7659 23.2047 34.8918 21.8803 34.6339 21.4497C34.178 19.8989 24.6959 19.2296 24.4841 20.4234C24.2577 21.0444 24.1521 22.3511 24.3128 23.7149C20.4296 23.2188 14.0499 22.415 12.6433 22.2666C12.1114 22.2105 11.1512 22.3442 10.3431 22.8161C9.92933 23.0577 9.53331 23.4009 9.26255 23.8765C8.98842 24.3579 8.86173 24.9422 8.94061 25.6268L10.0019 25.504C9.94722 25.0286 10.0375 24.6759 10.1905 24.4072C10.3468 24.1326 10.5879 23.9125 10.8809 23.7413C11.4862 23.3879 12.2176 23.2985 12.5315 23.3316C13.9638 23.4827 20.6578 24.3268 24.5039 24.8189Z" fill="#595757"/>
</g>
<g style="mix-blend-mode:screen" opacity="0.2">
<mask id="mask3_483_18126" style="mask-type:alpha" maskUnits="userSpaceOnUse" x="8" y="19" width="35" height="10">
<g style="mix-blend-mode:multiply">
<path d="M24.4788 24.6825C24.8001 26.1971 25.4781 27.6103 26.7437 28.0195C29.5037 28.9119 32.9868 28.2246 33.521 27.626C33.7138 27.4101 33.9979 26.6459 34.2468 25.7111C35.7532 24.8541 37.0452 25.332 37.4722 25.6384C37.5855 26.3621 37.7075 26.9389 37.7973 27.1101C38.0685 27.6269 39.9665 28.2628 41.277 27.3883C42.5876 26.5138 42.6327 21.2271 42.3842 20.6705C41.2243 20.2731 38.7689 19.9948 37.2324 21.5848C37.0998 21.9737 37.1672 23.1806 37.3024 24.3726C36.5977 24.1302 35.6223 24.0268 34.5457 24.4019C34.8019 23.0579 34.8969 21.7081 34.5341 21.2375C33.3322 19.9882 26.6547 19.3636 24.5179 20.2559C24.2941 20.5505 24.1355 22.0013 24.3051 23.5795C20.4209 23.0674 14.0507 22.2392 12.6451 22.0862C12.1092 22.0278 11.1461 22.1668 10.3367 22.6546C9.92203 22.9045 9.5277 23.258 9.259 23.7451C8.98762 24.237 8.86235 24.8333 8.94035 25.5327L10.0022 25.4138C9.9466 24.9161 10.0384 24.5453 10.194 24.2633C10.3524 23.9761 10.5952 23.7483 10.8872 23.5723C11.4913 23.2082 12.2198 23.117 12.5297 23.1508C13.959 23.3064 20.6289 24.1743 24.4788 24.6825Z" fill="#595757"/>
</g>
</mask>
<g mask="url(#mask3_483_18126)">
<path d="M28.5082 18.7054L22.6572 26.8163L24.2617 28.0439L31.7941 18.4712L28.5082 18.7054ZM32.1077 19.7515L25.2254 28.321L25.488 30.3142L33.9389 20.3755L32.1077 19.7515ZM43.7313 19.4177L36.8491 27.9873L37.1117 29.9805L45.5627 20.0418L43.7313 19.4177Z" fill="white"/>
</g>
</g>
</g>
</svg>
