<svg width="20" height="21" viewBox="0 0 20 21" fill="none" xmlns="http://www.w3.org/2000/svg">
<path d="M14.19 0.25H5.81C2.17 0.25 0 2.42 0 6.06V14.43C0 18.08 2.17 20.25 5.81 20.25H14.18C17.82 20.25 19.99 18.08 19.99 14.44V6.06C20 2.42 17.83 0.25 14.19 0.25ZM15.26 8.21L12.95 11.19C12.66 11.56 12.25 11.8 11.78 11.85C11.31 11.91 10.85 11.78 10.48 11.49L8.65 10.05C8.58 9.99 8.5 9.99 8.46 10C8.42 10 8.35 10.02 8.29 10.1L5.91 13.19C5.76 13.38 5.54 13.48 5.32 13.48C5.16 13.48 5 13.43 4.86 13.32C4.53 13.07 4.47 12.6 4.72 12.27L7.1 9.18C7.39 8.81 7.8 8.57 8.27 8.51C8.73 8.45 9.2 8.58 9.57 8.87L11.4 10.31C11.47 10.37 11.54 10.37 11.59 10.36C11.63 10.36 11.7 10.34 11.76 10.26L14.07 7.28C14.32 6.95 14.8 6.89 15.12 7.15C15.45 7.42 15.51 7.89 15.26 8.21Z" fill="#28293D"/>
</svg>
