<svg width="24" height="25" viewBox="0 0 24 25" fill="none" xmlns="http://www.w3.org/2000/svg">
<path d="M18.0001 8.035C17.9401 8.025 17.8701 8.025 17.8101 8.035C16.4301 7.985 15.3301 6.855 15.3301 5.455C15.3301 4.025 16.4801 2.875 17.9101 2.875C19.3401 2.875 20.4901 4.035 20.4901 5.455C20.4801 6.855 19.3801 7.985 18.0001 8.035Z" stroke="#8F90A6" stroke-width="1.5" stroke-linecap="round" stroke-linejoin="round"/>
<path d="M16.9702 15.315C18.3402 15.545 19.8502 15.305 20.9102 14.595C22.3202 13.655 22.3202 12.115 20.9102 11.175C19.8402 10.465 18.3102 10.225 16.9402 10.465" stroke="#8F90A6" stroke-width="1.5" stroke-linecap="round" stroke-linejoin="round"/>
<path d="M5.96998 8.035C6.02998 8.025 6.09998 8.025 6.15998 8.035C7.53998 7.985 8.63998 6.855 8.63998 5.455C8.63998 4.025 7.48998 2.875 6.05998 2.875C4.62998 2.875 3.47998 4.035 3.47998 5.455C3.48998 6.855 4.58998 7.985 5.96998 8.035Z" stroke="#8F90A6" stroke-width="1.5" stroke-linecap="round" stroke-linejoin="round"/>
<path d="M6.99994 15.315C5.62994 15.545 4.11994 15.305 3.05994 14.595C1.64994 13.655 1.64994 12.115 3.05994 11.175C4.12994 10.465 5.65994 10.225 7.02994 10.465" stroke="#8F90A6" stroke-width="1.5" stroke-linecap="round" stroke-linejoin="round"/>
<path d="M12.0001 15.505C11.9401 15.495 11.8701 15.495 11.8101 15.505C10.4301 15.455 9.33008 14.325 9.33008 12.925C9.33008 11.495 10.4801 10.345 11.9101 10.345C13.3401 10.345 14.4901 11.505 14.4901 12.925C14.4801 14.325 13.3801 15.465 12.0001 15.505Z" stroke="#8F90A6" stroke-width="1.5" stroke-linecap="round" stroke-linejoin="round"/>
<path d="M9.08997 18.655C7.67997 19.595 7.67997 21.135 9.08997 22.075C10.69 23.145 13.31 23.145 14.91 22.075C16.32 21.135 16.32 19.595 14.91 18.655C13.32 17.595 10.69 17.595 9.08997 18.655Z" stroke="#8F90A6" stroke-width="1.5" stroke-linecap="round" stroke-linejoin="round"/>
</svg>
