<svg width="253" height="253" viewBox="0 0 253 253" fill="none" xmlns="http://www.w3.org/2000/svg">
<path d="M227.649 201.636H210.891V201.762H227.649V201.636Z" fill="#EBEBEB"/>
<path d="M167.596 203.012H163.199V203.139H167.596V203.012Z" fill="#EBEBEB"/>
<path d="M210.384 196.94H200.674V197.067H210.384V196.94Z" fill="#EBEBEB"/>
<path d="M48.3991 197.79H26.5449V197.917H48.3991V197.79Z" fill="#EBEBEB"/>
<path d="M56.1112 197.79H52.9082V197.917H56.1112V197.79Z" fill="#EBEBEB"/>
<path d="M113.926 199.926H66.5234V200.052H113.926V199.926Z" fill="#EBEBEB"/>
<path d="M120.631 170.927H22.9225C22.1562 170.927 21.4213 170.622 20.8794 170.081C20.3376 169.539 20.0332 168.804 20.0332 168.037V30.6939C20.0399 29.932 20.3472 29.2036 20.8883 28.6672C21.4295 28.1309 22.1605 27.8299 22.9225 27.83H120.631C121.01 27.83 121.386 27.9047 121.737 28.0499C122.087 28.1951 122.406 28.4079 122.674 28.6762C122.942 28.9445 123.155 29.263 123.3 29.6135C123.446 29.9641 123.52 30.3398 123.52 30.7192V168.037C123.52 168.417 123.446 168.793 123.3 169.143C123.155 169.494 122.942 169.812 122.674 170.081C122.406 170.349 122.087 170.562 121.737 170.707C121.386 170.852 121.01 170.927 120.631 170.927ZM22.9225 27.9312C22.1901 27.9325 21.4882 28.224 20.9704 28.7418C20.4525 29.2597 20.161 29.9616 20.1597 30.6939V168.037C20.161 168.77 20.4525 169.472 20.9704 169.99C21.4882 170.507 22.1901 170.799 22.9225 170.8H120.631C121.363 170.799 122.065 170.507 122.583 169.99C123.101 169.472 123.392 168.77 123.394 168.037V30.6939C123.392 29.9616 123.101 29.2597 122.583 28.7418C122.065 28.224 121.363 27.9325 120.631 27.9312H22.9225Z" fill="#EBEBEB"/>
<path d="M230.078 170.927H132.37C131.603 170.927 130.869 170.622 130.327 170.081C129.785 169.539 129.48 168.804 129.48 168.037V30.6939C129.487 29.932 129.794 29.2036 130.336 28.6672C130.877 28.1309 131.608 27.8299 132.37 27.83H230.078C230.845 27.83 231.579 28.1344 232.121 28.6762C232.663 29.218 232.968 29.9529 232.968 30.7192V168.037C232.968 168.804 232.663 169.539 232.121 170.081C231.579 170.622 230.845 170.927 230.078 170.927ZM132.37 27.9312C131.637 27.9325 130.935 28.224 130.418 28.7418C129.9 29.2597 129.608 29.9616 129.607 30.6939V168.037C129.608 168.77 129.9 169.472 130.418 169.99C130.935 170.507 131.637 170.799 132.37 170.8H230.078C230.811 170.799 231.513 170.507 232.03 169.99C232.548 169.472 232.84 168.77 232.841 168.037V30.6939C232.84 29.9616 232.548 29.2597 232.03 28.7418C231.513 28.224 230.811 27.9325 230.078 27.9312H132.37Z" fill="#EBEBEB"/>
<path d="M253 193.494H0V193.621H253V193.494Z" fill="#EBEBEB"/>
<path d="M60.3806 159.263C59.9556 154.375 54.9664 152.549 49.0513 153.065C43.1361 153.581 38.5467 156.248 38.9616 161.136L60.3806 159.263Z" fill="#F0F0F0"/>
<path d="M48.8596 150.834C51.6021 150.591 52.4775 148.273 52.2397 145.531C52.0019 142.788 50.7217 140.658 47.9893 140.896C45.2569 141.134 44.3714 143.456 44.6092 146.199C44.847 148.941 46.1171 151.071 48.8596 150.834Z" fill="#F0F0F0"/>
<path d="M172.09 55.1539C172.138 55.6964 172.024 56.2409 171.763 56.7186C171.501 57.1963 171.104 57.5856 170.621 57.8374C170.138 58.0892 169.591 58.192 169.05 58.133C168.508 58.0739 167.997 57.8556 167.579 57.5056C167.162 57.1557 166.858 56.6898 166.706 56.1669C166.553 55.6441 166.559 55.0878 166.723 54.5684C166.887 54.049 167.201 53.59 167.626 53.2492C168.051 52.9085 168.567 52.7014 169.11 52.6543C169.836 52.5911 170.558 52.8189 171.117 53.2875C171.676 53.7562 172.026 54.4274 172.09 55.1539Z" fill="#F5F5F5"/>
<path d="M187.305 53.808C187.352 54.3494 187.238 54.8925 186.976 55.3688C186.714 55.845 186.317 56.233 185.835 56.4836C185.353 56.7342 184.807 56.8362 184.267 56.7767C183.727 56.7172 183.217 56.4989 182.801 56.1493C182.384 55.7998 182.081 55.3347 181.93 54.8129C181.778 54.2911 181.784 53.7361 181.948 53.2179C182.112 52.6998 182.425 52.2418 182.849 51.9019C183.273 51.562 183.789 51.3555 184.33 51.3084C185.056 51.2466 185.776 51.475 186.334 51.9435C186.892 52.4121 187.241 53.0825 187.305 53.808Z" fill="#F5F5F5"/>
<path d="M202.526 52.4773C202.574 53.0198 202.46 53.5643 202.198 54.042C201.937 54.5196 201.539 54.909 201.056 55.1608C200.574 55.4125 200.027 55.5154 199.485 55.4563C198.944 55.3973 198.432 55.1789 198.015 54.829C197.598 54.479 197.294 54.0131 197.141 53.4903C196.989 52.9675 196.995 52.4112 197.159 51.8918C197.323 51.3724 197.637 50.9133 198.062 50.5726C198.487 50.2319 199.003 50.0248 199.545 49.9776C200.272 49.9145 200.994 50.1422 201.553 50.6109C202.112 51.0795 202.462 51.7508 202.526 52.4773Z" fill="#F5F5F5"/>
<path d="M173.446 70.6477C173.494 71.1902 173.38 71.7347 173.118 72.2124C172.857 72.6901 172.459 73.0794 171.976 73.3312C171.493 73.583 170.947 73.6858 170.405 73.6268C169.864 73.5677 169.352 73.3494 168.935 72.9994C168.518 72.6494 168.214 72.1835 168.061 71.6607C167.909 71.1379 167.915 70.5816 168.079 70.0622C168.243 69.5428 168.557 69.0837 168.982 68.743C169.406 68.4023 169.923 68.1952 170.465 68.148C171.192 68.0849 171.914 68.3126 172.473 68.7813C173.031 69.25 173.381 69.9212 173.446 70.6477Z" fill="#F5F5F5"/>
<path d="M188.663 69.322C188.71 69.8633 188.595 70.4065 188.333 70.8827C188.072 71.359 187.675 71.7469 187.192 71.9975C186.71 72.2481 186.165 72.3501 185.624 72.2907C185.084 72.2312 184.574 72.0128 184.158 71.6633C183.742 71.3137 183.439 70.8487 183.287 70.3269C183.135 69.8051 183.142 69.25 183.305 68.7319C183.469 68.2137 183.783 67.7557 184.207 67.4158C184.631 67.0759 185.146 66.8694 185.687 66.8223C186.047 66.7911 186.409 66.8309 186.753 66.9397C187.097 67.0484 187.416 67.2238 187.693 67.4559C187.969 67.688 188.197 67.9723 188.363 68.2925C188.53 68.6127 188.631 68.9625 188.663 69.322Z" fill="#F5F5F5"/>
<path d="M203.883 67.9861C203.931 68.5285 203.817 69.0731 203.556 69.5508C203.294 70.0284 202.897 70.4178 202.414 70.6696C201.931 70.9213 201.384 71.0242 200.843 70.9651C200.301 70.9061 199.79 70.6877 199.372 70.3378C198.955 69.9878 198.651 69.5219 198.499 68.9991C198.346 68.4762 198.352 67.9199 198.516 67.4006C198.68 66.8812 198.994 66.4221 199.419 66.0814C199.844 65.7406 200.36 65.5336 200.903 65.4864C201.629 65.4233 202.351 65.651 202.91 66.1197C203.469 66.5883 203.819 67.2596 203.883 67.9861Z" fill="#F5F5F5"/>
<path d="M174.803 86.1616C174.85 86.703 174.736 87.2462 174.474 87.7224C174.212 88.1986 173.815 88.5866 173.333 88.8372C172.851 89.0878 172.305 89.1898 171.765 89.1303C171.225 89.0708 170.715 88.8525 170.299 88.5029C169.882 88.1534 169.579 87.6883 169.428 87.1665C169.276 86.6448 169.282 86.0897 169.446 85.5715C169.61 85.0534 169.923 84.5954 170.347 84.2555C170.771 83.9156 171.287 83.7091 171.828 83.662C172.188 83.6301 172.55 83.6694 172.894 83.7779C173.239 83.8863 173.558 84.0617 173.835 84.2939C174.111 84.5262 174.339 84.8107 174.505 85.1312C174.671 85.4517 174.773 85.8019 174.803 86.1616Z" fill="#F5F5F5"/>
<path d="M190.024 84.8258C190.072 85.3683 189.958 85.9128 189.696 86.3905C189.435 86.8682 189.037 87.2575 188.554 87.5093C188.072 87.761 187.525 87.8639 186.983 87.8048C186.442 87.7458 185.93 87.5275 185.513 87.1775C185.096 86.8275 184.792 86.3616 184.639 85.8388C184.487 85.316 184.493 84.7597 184.657 84.2403C184.821 83.7209 185.135 83.2618 185.56 82.9211C185.985 82.5804 186.501 82.3733 187.044 82.3261C187.77 82.263 188.492 82.4907 189.051 82.9594C189.61 83.4281 189.96 84.0993 190.024 84.8258Z" fill="#F5F5F5"/>
<path d="M205.239 83.49C205.287 84.0325 205.173 84.577 204.911 85.0547C204.65 85.5323 204.252 85.9217 203.769 86.1735C203.286 86.4252 202.74 86.5281 202.198 86.469C201.657 86.41 201.145 86.1916 200.728 85.8417C200.311 85.4917 200.007 85.0258 199.854 84.503C199.702 83.9802 199.708 83.4238 199.872 82.9045C200.036 82.3851 200.35 81.926 200.775 81.5853C201.199 81.2446 201.716 81.0375 202.258 80.9903C202.985 80.9272 203.707 81.1549 204.266 81.6236C204.824 82.0922 205.174 82.7635 205.239 83.49Z" fill="#F5F5F5"/>
<path d="M201.95 84.3906L170.689 87.123L198.408 53.4437L170.016 55.9281C169.937 55.9358 169.857 55.9275 169.781 55.9037C169.705 55.88 169.635 55.8413 169.574 55.7899C169.513 55.7385 169.463 55.6754 169.427 55.6045C169.391 55.5335 169.369 55.456 169.364 55.3766C169.35 55.2176 169.399 55.0595 169.502 54.9371C169.604 54.8147 169.751 54.738 169.91 54.7239L201.176 51.9915L173.452 85.6708L201.854 83.1864C202.014 83.1737 202.173 83.2244 202.296 83.3275C202.419 83.4307 202.496 83.5781 202.512 83.7379C202.518 83.8177 202.508 83.8979 202.483 83.974C202.459 84.05 202.419 84.1204 202.367 84.181C202.314 84.2417 202.251 84.2915 202.179 84.3274C202.108 84.3634 202.03 84.3849 201.95 84.3906Z" fill="#E6E6E6"/>
<path d="M202.431 144.519C202.383 144.371 202.292 144.241 202.171 144.145C202.049 144.049 201.902 143.99 201.748 143.977C200.388 143.914 199.102 143.346 198.14 142.383C196.89 141.123 196.157 139.216 196.035 136.949C196.023 136.744 195.934 136.552 195.786 136.411C195.637 136.27 195.44 136.191 195.236 136.19C195.125 136.19 195.015 136.213 194.914 136.257C194.812 136.301 194.721 136.365 194.644 136.446C194.568 136.526 194.509 136.621 194.471 136.725C194.432 136.829 194.415 136.939 194.421 137.05C194.563 139.712 195.463 141.989 196.996 143.522C198.197 144.724 199.79 145.455 201.485 145.581H201.601C201.734 145.591 201.868 145.568 201.99 145.515C202.112 145.461 202.219 145.377 202.301 145.272C202.383 145.167 202.438 145.043 202.46 144.912C202.483 144.78 202.473 144.645 202.431 144.519Z" fill="#F0F0F0"/>
<path d="M200.811 154.229C194.106 153.642 189.269 149.073 187.741 141.938C187.717 141.831 187.714 141.72 187.734 141.612C187.754 141.504 187.795 141.401 187.855 141.309C187.916 141.217 187.994 141.139 188.086 141.078C188.178 141.018 188.281 140.976 188.389 140.956C188.593 140.92 188.804 140.964 188.978 141.079C189.151 141.194 189.273 141.371 189.32 141.574C190.691 147.985 194.992 152.093 200.958 152.615C207.495 153.186 214.513 148.885 215.773 138.047C215.795 137.836 215.899 137.641 216.063 137.506C216.227 137.371 216.437 137.305 216.649 137.323C216.756 137.332 216.86 137.362 216.956 137.412C217.051 137.462 217.135 137.531 217.204 137.614C217.272 137.697 217.323 137.793 217.354 137.896C217.385 137.999 217.394 138.107 217.382 138.214C216.173 148.435 209.453 154.983 200.811 154.229Z" fill="#F0F0F0"/>
<path d="M188.16 134.829C188.053 134.82 187.949 134.79 187.854 134.74C187.758 134.69 187.674 134.621 187.605 134.538C187.537 134.455 187.486 134.36 187.455 134.256C187.425 134.153 187.415 134.045 187.427 133.938C188.631 123.717 195.351 117.164 203.988 117.923C211.578 118.586 216.663 124.253 217.458 132.79C217.466 132.897 217.453 133.004 217.419 133.106C217.385 133.209 217.331 133.303 217.261 133.384C217.19 133.465 217.104 133.531 217.008 133.578C216.911 133.626 216.806 133.653 216.699 133.66C216.488 133.67 216.281 133.597 216.122 133.457C215.964 133.318 215.866 133.122 215.849 132.911C215.115 125.22 210.576 120.124 203.852 119.537C197.339 118.966 190.291 123.262 189.036 134.09C189.027 134.196 188.997 134.299 188.948 134.394C188.9 134.488 188.833 134.572 188.751 134.641C188.67 134.709 188.576 134.761 188.475 134.794C188.373 134.826 188.266 134.838 188.16 134.829Z" fill="#F0F0F0"/>
<path d="M201.14 149.892C199.938 149.796 198.76 149.502 197.654 149.022C197.55 148.977 197.458 148.911 197.381 148.828C197.305 148.745 197.247 148.647 197.21 148.541C197.174 148.434 197.16 148.321 197.169 148.209C197.178 148.097 197.21 147.988 197.264 147.889C197.359 147.715 197.515 147.582 197.702 147.517C197.889 147.451 198.093 147.458 198.276 147.534C199.331 147.987 200.459 148.248 201.605 148.303C206.559 148.587 211.791 145.075 212.307 136.595C212.621 131.368 210.83 127.148 207.49 125.129C207.317 125.024 207.19 124.859 207.133 124.665C207.076 124.471 207.093 124.263 207.182 124.081C207.232 123.981 207.302 123.892 207.388 123.82C207.475 123.748 207.575 123.694 207.682 123.662C207.79 123.631 207.903 123.621 208.015 123.635C208.126 123.649 208.233 123.685 208.33 123.742C212.201 126.08 214.276 130.826 213.921 136.691C213.415 144.868 208.325 150.312 201.509 149.923L201.14 149.892Z" fill="#F0F0F0"/>
<path d="M193.935 144.848C193.842 144.911 193.736 144.954 193.626 144.974C193.515 144.995 193.402 144.993 193.292 144.968C193.182 144.942 193.079 144.895 192.989 144.828C192.898 144.761 192.822 144.677 192.766 144.579C191.266 141.791 190.607 138.627 190.868 135.471C191.344 127.644 196.035 122.315 202.405 122.224C202.517 122.222 202.629 122.243 202.733 122.286C202.836 122.329 202.93 122.392 203.008 122.473C203.086 122.554 203.146 122.65 203.185 122.755C203.224 122.86 203.241 122.972 203.235 123.084C203.222 123.287 203.134 123.477 202.988 123.618C202.842 123.758 202.648 123.839 202.446 123.843C197.72 123.935 192.973 127.507 192.488 135.568C192.242 138.416 192.829 141.274 194.178 143.795C194.279 143.97 194.31 144.177 194.265 144.374C194.22 144.571 194.102 144.744 193.935 144.858V144.848Z" fill="#F0F0F0"/>
<path d="M204.996 144.21C204.92 144.03 204.911 143.828 204.971 143.642C205.032 143.456 205.157 143.298 205.325 143.198C207.456 141.918 208.761 139.231 208.781 135.987C208.781 133.392 208.048 131.196 206.661 129.804C206.123 129.271 205.481 128.853 204.775 128.576C204.07 128.299 203.315 128.17 202.557 128.195C200.063 128.195 198.039 129.566 196.921 131.975C196.834 132.158 196.682 132.302 196.495 132.378C196.307 132.454 196.098 132.456 195.909 132.385C195.803 132.346 195.707 132.285 195.626 132.207C195.545 132.129 195.481 132.035 195.438 131.93C195.395 131.826 195.375 131.715 195.377 131.602C195.38 131.489 195.406 131.379 195.453 131.277C196.84 128.327 199.435 126.581 202.537 126.576C203.509 126.551 204.475 126.723 205.379 127.081C206.282 127.439 207.104 127.977 207.795 128.661C209.49 130.361 210.411 132.967 210.39 136.003C210.36 139.823 208.751 143.031 206.13 144.605C206.031 144.659 205.921 144.692 205.808 144.701C205.696 144.71 205.582 144.696 205.476 144.659C205.369 144.621 205.271 144.562 205.188 144.485C205.106 144.408 205.041 144.314 204.996 144.21Z" fill="#F0F0F0"/>
<path d="M199.167 138.234C199.059 138.278 198.943 138.298 198.826 138.293C198.71 138.288 198.596 138.258 198.492 138.204C198.388 138.151 198.297 138.076 198.225 137.984C198.153 137.892 198.102 137.786 198.074 137.672C198.019 137.455 197.978 137.227 197.943 136.994C197.482 133.958 199.112 131.332 201.728 130.862C202.337 130.729 202.969 130.741 203.572 130.897C204.176 131.052 204.735 131.347 205.204 131.757C205.292 131.836 205.361 131.933 205.407 132.041C205.452 132.15 205.472 132.268 205.466 132.385C205.46 132.503 205.427 132.618 205.37 132.721C205.313 132.824 205.234 132.913 205.138 132.982L205.088 133.017C204.936 133.123 204.752 133.173 204.568 133.159C204.384 133.145 204.21 133.068 204.076 132.941C203.792 132.702 203.456 132.531 203.095 132.444C202.734 132.356 202.358 132.353 201.996 132.435C200.002 132.795 199.243 134.869 199.527 136.731C199.557 136.913 199.587 137.091 199.633 137.237C199.682 137.428 199.66 137.63 199.572 137.805C199.483 137.981 199.334 138.119 199.152 138.194L199.167 138.234Z" fill="#F0F0F0"/>
<path d="M201.843 141.351C201.715 141.339 201.593 141.294 201.487 141.221C201.382 141.148 201.297 141.049 201.24 140.934C201.183 140.819 201.157 140.692 201.163 140.564C201.169 140.436 201.208 140.311 201.276 140.202L201.347 140.091C201.419 139.975 201.522 139.881 201.645 139.82C201.767 139.758 201.904 139.731 202.04 139.742C202.294 139.756 202.549 139.741 202.799 139.696C204.54 139.383 205.329 137.763 205.329 136.114C205.324 135.916 205.391 135.723 205.517 135.57C205.644 135.417 205.821 135.316 206.017 135.284C206.129 135.267 206.244 135.274 206.354 135.304C206.463 135.334 206.565 135.386 206.653 135.459C206.741 135.531 206.812 135.62 206.863 135.722C206.914 135.824 206.943 135.935 206.948 136.048C206.994 138.689 205.43 140.87 203.087 141.29C202.677 141.366 202.258 141.387 201.843 141.351Z" fill="#F0F0F0"/>
<path d="M202.203 138.361C201.794 138.326 201.406 138.165 201.094 137.899C200.782 137.633 200.561 137.276 200.462 136.878C200.433 136.766 200.432 136.648 200.458 136.535C200.484 136.422 200.536 136.317 200.611 136.229C200.686 136.14 200.781 136.071 200.888 136.026C200.994 135.982 201.11 135.963 201.226 135.972H201.413C201.555 135.987 201.689 136.043 201.8 136.133C201.91 136.223 201.992 136.343 202.036 136.478C202.053 136.549 202.092 136.612 202.148 136.659C202.203 136.706 202.272 136.735 202.344 136.741C202.734 136.777 202.8 136.235 202.81 136.104C202.833 135.907 202.796 135.707 202.703 135.532C202.564 135.363 202.492 135.149 202.501 134.93C202.514 134.769 202.574 134.616 202.675 134.49C202.775 134.364 202.911 134.27 203.065 134.222C203.219 134.174 203.384 134.172 203.538 134.218C203.693 134.264 203.831 134.355 203.933 134.48C204.328 134.979 204.51 135.613 204.439 136.246C204.307 137.576 203.371 138.462 202.203 138.361Z" fill="#F0F0F0"/>
<path d="M186.981 120.251C186.875 120.242 186.772 120.212 186.678 120.163C186.584 120.114 186.5 120.047 186.432 119.966C186.364 119.885 186.312 119.791 186.281 119.689C186.249 119.588 186.238 119.481 186.248 119.376L186.86 112.357L193.878 112.975C193.984 112.984 194.087 113.013 194.181 113.062C194.275 113.111 194.359 113.178 194.427 113.26C194.495 113.341 194.547 113.435 194.578 113.536C194.61 113.638 194.621 113.744 194.612 113.85C194.603 113.956 194.573 114.059 194.524 114.154C194.475 114.248 194.408 114.332 194.327 114.401C194.246 114.469 194.152 114.521 194.05 114.554C193.949 114.586 193.842 114.598 193.736 114.589L188.332 114.113L187.862 119.517C187.852 119.623 187.822 119.726 187.772 119.821C187.723 119.915 187.655 119.999 187.574 120.067C187.492 120.135 187.397 120.186 187.296 120.218C187.194 120.249 187.087 120.261 186.981 120.251Z" fill="#F0F0F0"/>
<path d="M220.342 123.171C220.236 123.162 220.133 123.132 220.039 123.083C219.944 123.034 219.861 122.967 219.793 122.886C219.724 122.804 219.673 122.71 219.641 122.609C219.61 122.508 219.598 122.401 219.608 122.295L220.079 116.891L214.675 116.421C214.569 116.411 214.465 116.381 214.371 116.331C214.277 116.282 214.193 116.214 214.125 116.132C214.057 116.051 214.006 115.956 213.974 115.855C213.942 115.753 213.931 115.646 213.941 115.54C213.95 115.434 213.98 115.331 214.028 115.237C214.077 115.143 214.144 115.059 214.226 114.991C214.307 114.923 214.401 114.871 214.503 114.84C214.604 114.808 214.711 114.797 214.816 114.806L221.834 115.419L221.222 122.452C221.199 122.663 221.094 122.857 220.929 122.992C220.765 123.126 220.554 123.19 220.342 123.171Z" fill="#F0F0F0"/>
<path d="M217.859 160.908L210.841 160.296C210.735 160.286 210.631 160.256 210.537 160.206C210.443 160.157 210.359 160.089 210.291 160.008C210.223 159.926 210.172 159.831 210.14 159.73C210.108 159.628 210.097 159.521 210.107 159.415C210.116 159.309 210.146 159.206 210.194 159.112C210.243 159.018 210.31 158.934 210.392 158.866C210.473 158.798 210.567 158.746 210.669 158.715C210.77 158.683 210.877 158.672 210.982 158.682L216.386 159.152L216.857 153.753C216.866 153.647 216.896 153.543 216.945 153.448C216.994 153.353 217.061 153.269 217.143 153.2C217.225 153.132 217.32 153.08 217.422 153.048C217.524 153.016 217.631 153.005 217.737 153.014C217.843 153.023 217.946 153.053 218.04 153.102C218.135 153.151 218.218 153.218 218.287 153.299C218.355 153.381 218.406 153.475 218.438 153.576C218.47 153.677 218.481 153.784 218.471 153.89L217.859 160.908Z" fill="#F0F0F0"/>
<path d="M189.901 158.449L182.883 157.831L183.495 150.818C183.516 150.604 183.619 150.407 183.784 150.269C183.949 150.131 184.161 150.063 184.376 150.08C184.482 150.089 184.585 150.119 184.679 150.169C184.773 150.218 184.857 150.286 184.925 150.368C184.993 150.449 185.044 150.544 185.076 150.645C185.108 150.747 185.119 150.854 185.109 150.96L184.639 156.354L190.038 156.83C190.144 156.839 190.247 156.868 190.341 156.917C190.436 156.966 190.52 157.033 190.588 157.114C190.657 157.195 190.709 157.29 190.741 157.391C190.773 157.492 190.785 157.599 190.776 157.705C190.758 157.919 190.656 158.118 190.492 158.257C190.328 158.397 190.116 158.466 189.901 158.449Z" fill="#F0F0F0"/>
<path d="M37.8143 143.264C37.6824 143.274 37.552 143.232 37.4508 143.146C37.3496 143.061 37.2857 142.94 37.2729 142.808L36.8984 138.497L41.2096 138.118C41.3414 138.108 41.4719 138.15 41.5731 138.235C41.6743 138.32 41.7381 138.442 41.751 138.573C41.7595 138.704 41.7167 138.833 41.6318 138.933C41.5468 139.034 41.4262 139.097 41.2956 139.11L37.9762 139.403L38.2646 142.722C38.2746 142.853 38.2332 142.983 38.1491 143.084C38.0651 143.185 37.945 143.25 37.8143 143.264Z" fill="#E0E0E0"/>
<path d="M58.326 141.467C58.1949 141.477 58.0651 141.436 57.9641 141.352C57.863 141.268 57.7987 141.148 57.7846 141.017L57.4962 137.693L54.1717 137.986C54.0399 137.996 53.9094 137.954 53.8082 137.869C53.707 137.784 53.6432 137.662 53.6303 137.531C53.6204 137.399 53.6626 137.268 53.7477 137.167C53.8328 137.066 53.9541 137.002 54.0857 136.989L58.3968 136.615L58.7763 140.926C58.7863 141.057 58.7449 141.187 58.6608 141.288C58.5768 141.389 58.4567 141.453 58.326 141.467Z" fill="#E0E0E0"/>
<path d="M60.4528 160.043L56.1366 160.422C56.0047 160.432 55.8742 160.39 55.7731 160.305C55.6719 160.22 55.608 160.098 55.5952 159.967C55.5853 159.835 55.6274 159.705 55.7125 159.603C55.7976 159.502 55.919 159.438 56.0506 159.425L59.3699 159.137L59.0815 155.818C59.0715 155.687 59.113 155.557 59.197 155.456C59.2811 155.355 59.4012 155.29 59.5318 155.276C59.6629 155.266 59.7927 155.308 59.8938 155.392C59.9948 155.476 60.0592 155.596 60.0733 155.727L60.4528 160.043Z" fill="#E0E0E0"/>
<path d="M43.2585 161.545L38.9626 161.92L38.5831 157.604C38.5746 157.473 38.6173 157.344 38.7023 157.243C38.7873 157.143 38.9078 157.08 39.0385 157.067C39.1687 157.059 39.2972 157.101 39.3972 157.185C39.4971 157.269 39.5608 157.388 39.5749 157.518L39.8683 160.842L43.1877 160.549C43.3195 160.539 43.45 160.581 43.5512 160.666C43.6524 160.751 43.7163 160.872 43.7291 161.004C43.7339 161.071 43.7256 161.137 43.7045 161.201C43.6834 161.264 43.6501 161.322 43.6063 161.373C43.5626 161.423 43.5094 161.464 43.4497 161.494C43.39 161.523 43.325 161.541 43.2585 161.545Z" fill="#E0E0E0"/>
<path d="M57.9779 71.346L41.4924 72.7628L41.1534 68.902C41.1286 67.0594 41.8014 65.2756 43.037 63.9084C44.2725 62.5412 45.9793 61.6917 47.815 61.5303C49.6507 61.369 51.4795 61.9077 52.9345 63.0384C54.3896 64.1691 55.3633 65.8082 55.6604 67.6269L55.8527 69.8736L58.2359 69.6661L58.0386 67.4195C57.9276 66.1523 57.5681 64.9194 56.9807 63.7911C56.3932 62.6629 55.5893 61.6614 54.6148 60.8438C53.6403 60.0262 52.5143 59.4086 51.3011 59.0262C50.088 58.6438 48.8113 58.5041 47.5441 58.6151C44.985 58.8392 42.6196 60.0707 40.9685 62.0388C40.1509 63.0133 39.5333 64.1393 39.1509 65.3525C38.7685 66.5657 38.6288 67.8423 38.7397 69.1095L39.0788 72.9956C38.14 73.1793 37.3024 73.7036 36.727 74.4677C36.1516 75.2318 35.8791 76.1817 35.9618 77.1347L37.1408 90.6145C37.1828 91.1233 37.325 91.6187 37.559 92.0724C37.7931 92.5261 38.1145 92.929 38.5047 93.2581C38.895 93.5872 39.3464 93.836 39.833 93.9902C40.3197 94.1444 40.832 94.2009 41.3406 94.1565L59.8248 92.5424C60.3335 92.5003 60.829 92.3582 61.2826 92.1241C61.7363 91.89 62.1393 91.5687 62.4684 91.1784C62.7975 90.7882 63.0463 90.3368 63.2005 89.8501C63.3546 89.3634 63.4111 88.8511 63.3668 88.3426L62.1878 74.8627C62.1426 74.3552 61.9979 73.8616 61.7618 73.4102C61.5257 72.9587 61.2029 72.5582 60.8119 72.2315C60.4209 71.9049 59.9693 71.6586 59.483 71.5066C58.9968 71.3547 58.4853 71.3001 57.9779 71.346ZM50.9647 81.7342L51.3695 86.3742C51.3967 86.561 51.3856 86.7513 51.3367 86.9336C51.2878 87.1159 51.2022 87.2862 51.0851 87.4343C50.9681 87.5823 50.822 87.7049 50.6559 87.7945C50.4899 87.8841 50.3072 87.9389 50.1192 87.9554C49.9312 87.972 49.7418 87.95 49.5626 87.8908C49.3834 87.8316 49.2182 87.7364 49.0771 87.6111C48.936 87.4858 48.8219 87.333 48.7419 87.1621C48.6619 86.9912 48.6176 86.8057 48.6118 86.6171L48.207 81.972C47.7896 81.7157 47.4637 81.3342 47.2757 80.8818C47.0877 80.4294 47.0472 79.9293 47.16 79.4526C47.2728 78.9759 47.5331 78.5469 47.9039 78.2268C48.2747 77.9067 48.737 77.7117 49.2251 77.6696C49.7131 77.6275 50.202 77.7405 50.6221 77.9924C51.0422 78.2443 51.3722 78.6224 51.5649 79.0727C51.7577 79.5231 51.8034 80.0228 51.6956 80.5006C51.5879 80.9785 51.3321 81.4102 50.9647 81.7342Z" fill="#EBEBEB"/>
<path d="M86.2426 79.1333L84.5778 76.4059C83.7387 76.5254 82.8869 76.5254 82.0478 76.4059L80.378 79.1232L80.0593 79.0371C78.9772 78.7521 77.9388 78.3214 76.9727 77.757L76.6893 77.595L77.3926 74.64C77.4063 74.5827 77.4311 74.5286 77.4658 74.481C77.5005 74.4333 77.5443 74.3931 77.5947 74.3625C77.645 74.3319 77.7009 74.3116 77.7592 74.3028C77.8175 74.2939 77.8769 74.2968 77.9341 74.3111C78.0487 74.3387 78.1478 74.4107 78.2095 74.5112C78.2711 74.6118 78.2904 74.7327 78.263 74.8475L77.7064 77.1498C78.4254 77.5415 79.1835 77.8569 79.9682 78.0909L81.5975 75.4294L81.896 75.48C82.8413 75.6318 83.8047 75.6318 84.7499 75.48L85.0434 75.4294L86.6727 78.0909C87.458 77.8588 88.2163 77.5432 88.9345 77.1498L88.2109 74.1138L88.4538 73.9367C89.1129 73.4613 89.7037 72.8977 90.2096 72.2618C90.2799 72.1702 90.3831 72.1095 90.4973 72.0925C90.6116 72.0755 90.7279 72.1035 90.8219 72.1707C90.8711 72.2049 90.9128 72.2487 90.9445 72.2995C90.9762 72.3503 90.9972 72.4071 91.0062 72.4663C91.0152 72.5255 91.012 72.5859 90.9968 72.6438C90.9817 72.7018 90.9549 72.756 90.918 72.8032C90.4208 73.4311 89.8481 73.9954 89.2128 74.4831L89.9566 77.5849L89.6682 77.7468C88.7034 78.3104 87.6668 78.741 86.5867 79.027L86.2426 79.1333ZM76.0113 73.1928C75.8746 73.036 75.738 72.869 75.6065 72.6868L72.5047 73.4307L72.3377 73.1473C71.7774 72.179 71.347 71.1413 71.0575 70.0607L70.9766 69.7419L73.6938 68.0721C73.5743 67.233 73.5743 66.3812 73.6938 65.5421L70.9766 63.8774L71.0575 63.5535C71.347 62.4746 71.7775 61.4385 72.3377 60.472L72.5047 60.1836L75.6065 60.9274C76.1243 60.2497 76.7301 59.6439 77.4078 59.126L76.8462 56.7782C76.8188 56.6635 76.838 56.5425 76.8997 56.442C76.9613 56.3414 77.0604 56.2694 77.1751 56.2418C77.2316 56.2283 77.2902 56.2261 77.3475 56.2354C77.4048 56.2446 77.4598 56.2651 77.5092 56.2957C77.5586 56.3262 77.6014 56.3663 77.6353 56.4135C77.6691 56.4607 77.6933 56.5142 77.7064 56.5707L78.4097 59.4954L78.1668 59.6675C77.3873 60.2284 76.7037 60.9119 76.1428 61.6915L75.9657 61.9343L72.9297 61.2108C72.5362 61.929 72.2207 62.6872 71.9886 63.4726L74.6451 65.1019L74.5995 65.3954C74.4305 66.3392 74.4305 67.3054 74.5995 68.2492L74.6451 68.5478L71.9886 70.1771C72.2216 70.9605 72.5371 71.717 72.9297 72.4338L75.9657 71.7103L76.1428 71.9531C76.3001 72.1826 76.469 72.4038 76.6488 72.616C76.7268 72.6978 76.7703 72.8066 76.7703 72.9196C76.7703 73.0326 76.7268 73.1413 76.6488 73.2232C76.6057 73.2645 76.5546 73.2966 76.4987 73.3175C76.4428 73.3384 76.3832 73.3477 76.3235 73.3449C76.2639 73.342 76.2054 73.3271 76.1518 73.3009C76.0981 73.2748 76.0503 73.238 76.0113 73.1928ZM94.0957 73.4408L92.9521 73.1675C92.8375 73.1399 92.7384 73.068 92.6767 72.9674C92.6151 72.8668 92.5958 72.7459 92.6232 72.6312C92.6508 72.5165 92.7228 72.4174 92.8234 72.3558C92.9239 72.2941 93.0449 72.2749 93.1596 72.3023L93.6656 72.4187C94.0566 71.7016 94.3704 70.9451 94.6017 70.1619L91.9452 68.5326L91.9958 68.234C92.1648 67.2903 92.1648 66.324 91.9958 65.3802L91.9452 65.0867L94.6017 63.4574C94.3713 62.6722 94.0575 61.9139 93.6656 61.1956L90.6296 61.9192L90.4576 61.6763C89.8953 60.8979 89.212 60.2145 88.4336 59.6523L88.1907 59.4802L88.9143 56.4442C88.1959 56.0524 87.4376 55.7385 86.6524 55.5081L85.0079 58.1899L84.7145 58.1393C83.7692 57.9875 82.8058 57.9875 81.8606 58.1393L81.5621 58.1899L79.9479 55.5183L79.6443 55.6093C79.5363 55.645 79.4186 55.6368 79.3164 55.5867C79.2143 55.5366 79.1358 55.4484 79.0979 55.3412C79.077 55.2857 79.0673 55.2267 79.0696 55.1675C79.0718 55.1083 79.0858 55.0501 79.1108 54.9964C79.1357 54.9427 79.1712 54.8945 79.215 54.8546C79.2588 54.8148 79.3102 54.7841 79.366 54.7643C79.5887 54.6935 79.8164 54.6277 80.039 54.567L80.3578 54.481L82.0276 57.2032C82.8663 57.0785 83.7189 57.0785 84.5576 57.2032L86.2223 54.481L86.5462 54.567C87.6256 54.8552 88.6618 55.2857 89.6277 55.8472L89.9161 56.0141L89.1723 59.1159C89.851 59.6327 90.4569 60.2386 90.9737 60.9173L94.0755 60.1735L94.2424 60.4619C94.8048 61.4273 95.2353 62.4637 95.5226 63.5434L95.6086 63.8673L92.8864 65.532C93.0125 66.3706 93.0125 67.2234 92.8864 68.062L95.6086 69.7318L95.5226 70.0506C95.2353 71.1319 94.8048 72.17 94.2424 73.1372L94.0957 73.4408ZM83.1762 71.1435C82.0737 71.0999 81.028 70.6423 80.2478 69.862C79.4675 69.0818 79.01 68.0362 78.9663 66.9336C78.9362 65.8492 79.3132 64.7927 80.0231 63.9723C80.7329 63.152 81.7243 62.6271 82.8018 62.5011C82.865 62.4932 82.9292 62.4988 82.99 62.5176C83.0509 62.5363 83.1071 62.5678 83.155 62.6099C83.2028 62.652 83.2411 62.7037 83.2675 62.7617C83.2938 62.8197 83.3076 62.8826 83.3078 62.9463C83.3073 63.054 83.2673 63.1577 83.1955 63.2378C83.1237 63.318 83.0251 63.3691 82.9182 63.3815C82.1683 63.467 81.4673 63.7963 80.9228 64.3188C80.3783 64.8413 80.0203 65.5282 79.904 66.2738C79.7876 67.0195 79.9192 67.7827 80.2787 68.4463C80.6381 69.1099 81.2054 69.6371 81.8935 69.9471C82.5816 70.257 83.3524 70.3324 84.0876 70.1618C84.8227 69.9912 85.4815 69.584 85.9628 69.0027C86.4441 68.4214 86.7212 67.6982 86.7517 66.9441C86.7821 66.19 86.5641 65.4468 86.1313 64.8287C86.0688 64.7411 86.0414 64.6332 86.0545 64.5265C86.0676 64.4197 86.1203 64.3217 86.2021 64.2518C86.2493 64.2099 86.3049 64.1785 86.3652 64.1596C86.4255 64.1408 86.4891 64.1351 86.5518 64.1427C86.6145 64.1504 86.6748 64.1713 86.7288 64.2041C86.7828 64.2368 86.8292 64.2807 86.865 64.3328C87.3252 64.9913 87.5933 65.7648 87.6392 66.5669C87.685 67.3691 87.5069 68.1681 87.1247 68.8748C86.7425 69.5815 86.1712 70.168 85.4748 70.5686C84.7784 70.9693 83.9843 71.1683 83.1813 71.1435H83.1762Z" fill="#F0F0F0"/>
<path d="M54.8053 116.173L53.7275 114.417C53.1823 114.498 52.6282 114.498 52.083 114.417L51.0052 116.173L50.7978 116.117C50.0993 115.933 49.4287 115.655 48.8041 115.292L48.622 115.186L49.0774 113.273C49.0954 113.2 49.1416 113.136 49.2059 113.096C49.2703 113.057 49.3477 113.044 49.4215 113.061C49.4584 113.07 49.4932 113.086 49.5239 113.108C49.5545 113.13 49.5805 113.159 49.6002 113.191C49.62 113.223 49.6331 113.26 49.6389 113.297C49.6447 113.335 49.643 113.373 49.634 113.41L49.2798 114.897C49.744 115.152 50.2343 115.355 50.7421 115.505L51.7946 113.789L51.9818 113.82C52.5933 113.921 53.2172 113.921 53.8287 113.82L54.0159 113.789L55.0735 115.505C55.5786 115.352 56.0668 115.149 56.5308 114.897L56.0652 112.944L56.2221 112.828C56.6475 112.522 57.0289 112.16 57.3555 111.75C57.4 111.69 57.4664 111.65 57.5404 111.638C57.6143 111.627 57.6897 111.645 57.7502 111.689C57.7813 111.711 57.8077 111.74 57.8278 111.772C57.848 111.804 57.8615 111.84 57.8676 111.878C57.8737 111.916 57.8723 111.954 57.8634 111.991C57.8546 112.028 57.8385 112.063 57.816 112.094C57.4936 112.5 57.1232 112.865 56.7129 113.182L57.2189 115.206L57.0317 115.312C56.4076 115.676 55.7369 115.954 55.0381 116.137L54.8053 116.173ZM48.1969 112.332L47.9338 112.013L45.9098 112.489L45.8036 112.307C45.4471 111.679 45.1765 111.007 44.999 110.308L44.9434 110.101L46.6992 109.023C46.6182 108.478 46.6182 107.923 46.6992 107.378L44.9434 106.3L44.999 106.093C45.1824 105.394 45.4599 104.724 45.8238 104.099L45.9301 103.912L47.9541 104.418C48.2795 103.975 48.6585 103.574 49.0824 103.224L48.7232 101.706C48.7142 101.669 48.7126 101.631 48.7184 101.594C48.7243 101.557 48.7375 101.521 48.7572 101.489C48.777 101.457 48.803 101.43 48.8336 101.408C48.8643 101.386 48.899 101.37 48.9357 101.362C49.0095 101.345 49.0869 101.358 49.1512 101.398C49.2156 101.438 49.2618 101.501 49.2798 101.574L49.7352 103.462L49.5733 103.578C49.0718 103.938 48.6326 104.377 48.2728 104.879L48.1565 105.035L46.2033 104.57C45.952 105.034 45.7486 105.522 45.5961 106.027L47.3114 107.08L47.2811 107.272C47.2289 107.576 47.2018 107.884 47.2001 108.193C47.2018 108.503 47.2289 108.813 47.2811 109.119L47.3114 109.306L45.5961 110.359C45.7476 110.866 45.9511 111.356 46.2033 111.821L48.1565 111.35L48.2728 111.507C48.3774 111.657 48.4906 111.801 48.6119 111.937C48.6617 111.99 48.6894 112.06 48.6894 112.132C48.6894 112.205 48.6617 112.274 48.6119 112.327C48.5857 112.356 48.5539 112.379 48.5184 112.395C48.4829 112.411 48.4444 112.419 48.4055 112.42C48.3666 112.42 48.328 112.413 48.2921 112.398C48.2562 112.383 48.2238 112.36 48.1969 112.332ZM59.8805 112.489L59.1417 112.317C59.1048 112.308 59.07 112.292 59.0393 112.269C59.0086 112.247 58.9827 112.219 58.9629 112.186C58.9432 112.154 58.93 112.118 58.9243 112.08C58.9185 112.043 58.9201 112.005 58.9292 111.968C58.9375 111.931 58.9531 111.896 58.975 111.866C58.9968 111.835 59.0246 111.809 59.0566 111.789C59.0887 111.769 59.1243 111.756 59.1615 111.75C59.1987 111.745 59.2367 111.746 59.2733 111.755L59.5921 111.831C59.8464 111.367 60.0499 110.877 60.1993 110.369L58.4839 109.316L58.5143 109.129C58.5665 108.823 58.5936 108.513 58.5952 108.203C58.5935 107.894 58.5665 107.586 58.5143 107.282L58.4839 107.09L60.1993 106.037C60.049 105.531 59.8454 105.043 59.5921 104.58L57.6389 105.046L57.5225 104.889C57.1628 104.387 56.7235 103.948 56.2221 103.588L56.0652 103.472L56.5308 101.519C56.0678 101.265 55.5794 101.062 55.0735 100.912L54.0159 102.627L53.8287 102.597C53.2172 102.495 52.5933 102.495 51.9818 102.597L51.7946 102.627L50.7421 100.912L50.5448 100.972C50.4743 100.995 50.3978 100.989 50.3316 100.956C50.2654 100.923 50.2148 100.865 50.1906 100.795C50.177 100.76 50.1706 100.722 50.1719 100.684C50.1732 100.646 50.1822 100.608 50.1983 100.574C50.2143 100.54 50.2371 100.509 50.2654 100.483C50.2936 100.458 50.3267 100.438 50.3626 100.426L50.7978 100.294L51.0052 100.244L52.083 101.999C52.6282 101.918 53.1823 101.918 53.7275 101.999L54.8053 100.244L55.0128 100.294C55.711 100.482 56.3814 100.761 57.0064 101.124L57.1936 101.23L56.6876 103.254C57.1233 103.591 57.5144 103.982 57.8514 104.418L59.8754 103.912L59.9817 104.099C60.3456 104.724 60.6231 105.394 60.8065 106.093L60.8621 106.3L59.1063 107.378C59.1873 107.923 59.1873 108.478 59.1063 109.023L60.8621 110.101L60.8065 110.308C60.6222 111.007 60.3448 111.677 59.9817 112.302L59.8805 112.489ZM52.8268 111.006C52.1393 110.959 51.4932 110.66 51.012 110.167C50.5307 109.674 50.2481 109.02 50.2181 108.332C50.188 107.643 50.4127 106.968 50.8491 106.434C51.2855 105.901 51.9031 105.547 52.584 105.44C52.6245 105.436 52.6656 105.44 52.7044 105.453C52.7433 105.465 52.7791 105.486 52.8095 105.513C52.84 105.54 52.8645 105.573 52.8814 105.61C52.8983 105.648 52.9073 105.688 52.9078 105.729C52.9082 105.799 52.8826 105.867 52.8358 105.919C52.7891 105.971 52.7246 106.005 52.6548 106.012C52.228 106.061 51.8244 106.232 51.4928 106.505C51.1611 106.778 50.9155 107.141 50.7856 107.551C50.6557 107.96 50.6471 108.399 50.7607 108.813C50.8743 109.227 51.1053 109.6 51.4259 109.886C51.7465 110.172 52.143 110.359 52.5675 110.424C52.9921 110.49 53.4265 110.431 53.8185 110.256C54.2105 110.08 54.5433 109.795 54.7768 109.434C55.0102 109.073 55.1343 108.653 55.1342 108.223C55.1352 107.766 54.9937 107.321 54.7294 106.948C54.6908 106.891 54.6741 106.821 54.6825 106.752C54.6908 106.684 54.7237 106.62 54.7749 106.574C54.8054 106.546 54.8414 106.526 54.8804 106.513C54.9195 106.501 54.9607 106.497 55.0014 106.502C55.0421 106.507 55.0813 106.52 55.1164 106.541C55.1515 106.562 55.1818 106.591 55.205 106.624C55.501 107.05 55.6731 107.55 55.7021 108.067C55.7312 108.585 55.6161 109.101 55.3696 109.557C55.1232 110.013 54.755 110.392 54.3061 110.651C53.8572 110.911 53.3451 111.041 52.8268 111.027V111.006Z" fill="#E6E6E6"/>
<path d="M126.501 216.067C180.685 216.067 224.609 213.503 224.609 210.339C224.609 207.176 180.685 204.611 126.501 204.611C72.3172 204.611 28.3926 207.176 28.3926 210.339C28.3926 213.503 72.3172 216.067 126.501 216.067Z" fill="#F5F5F5"/>
<path d="M183.906 73.79H167.431L155.793 206.994H172.268C174.581 206.95 176.797 206.061 178.499 204.495C180.201 202.929 181.271 200.794 181.508 198.494L191.673 82.2857C191.792 81.203 191.678 80.1075 191.339 79.0722C191.001 78.037 190.445 77.0858 189.711 76.2819C188.976 75.4781 188.078 74.84 187.077 74.4104C186.076 73.9807 184.995 73.7692 183.906 73.79Z" fill="#407BFF"/>
<path d="M180.546 73.7901H124.785C122.472 73.8334 120.256 74.7213 118.553 76.2863C116.85 77.8513 115.778 79.9853 115.54 82.2858L105.375 198.494C105.258 199.576 105.372 200.67 105.71 201.705C106.048 202.739 106.602 203.69 107.336 204.494C108.069 205.298 108.966 205.936 109.965 206.367C110.964 206.799 112.043 207.012 113.132 206.995H168.888C171.197 206.945 173.409 206.054 175.108 204.489C176.806 202.923 177.875 200.791 178.112 198.494L188.278 82.2858C188.395 81.2061 188.282 80.1137 187.946 79.081C187.61 78.0483 187.058 77.0988 186.326 76.2955C185.595 75.4923 184.702 74.8535 183.705 74.4216C182.709 73.9896 181.632 73.7744 180.546 73.7901Z" fill="#407BFF"/>
<path opacity="0.3" d="M180.546 73.7901H124.785C122.472 73.8334 120.256 74.7213 118.553 76.2863C116.85 77.8513 115.778 79.9853 115.54 82.2858L105.375 198.494C105.258 199.576 105.372 200.67 105.71 201.705C106.048 202.739 106.602 203.69 107.336 204.494C108.069 205.298 108.966 205.936 109.965 206.367C110.964 206.799 112.043 207.012 113.132 206.995H168.888C171.197 206.945 173.409 206.054 175.108 204.489C176.806 202.923 177.875 200.791 178.112 198.494L188.278 82.2858C188.395 81.2061 188.282 80.1137 187.946 79.081C187.61 78.0483 187.058 77.0988 186.326 76.2955C185.595 75.4923 184.702 74.8535 183.705 74.4216C182.709 73.9896 181.632 73.7744 180.546 73.7901Z" fill="white"/>
<path opacity="0.4" d="M180.307 76.5123H165.603C165.165 76.5159 164.737 76.6509 164.377 76.8999C164.016 77.1488 163.738 77.5003 163.579 77.9089C162.999 79.4096 161.985 80.7035 160.667 81.6255C159.348 82.5474 157.785 83.0556 156.176 83.0852H147.503C145.988 83.1158 144.51 82.6171 143.323 81.675C142.136 80.7329 141.315 79.4064 141.001 77.924C140.917 77.523 140.696 77.1638 140.375 76.9088C140.055 76.6537 139.655 76.5188 139.245 76.5275H124.546C122.974 76.5553 121.467 77.1582 120.31 78.2221C119.153 79.286 118.426 80.7371 118.267 82.3009L108.096 198.509C108.015 199.245 108.091 199.989 108.32 200.693C108.549 201.397 108.926 202.044 109.425 202.591C109.924 203.138 110.534 203.572 111.214 203.865C111.894 204.157 112.628 204.301 113.369 204.287H169.13C170.702 204.258 172.209 203.654 173.366 202.59C174.523 201.525 175.25 200.073 175.409 198.509L185.575 82.3009C185.658 81.5648 185.583 80.8194 185.354 80.1146C185.126 79.4098 184.75 78.7618 184.252 78.2139C183.753 77.666 183.143 77.2308 182.463 76.9374C181.783 76.6439 181.048 76.499 180.307 76.5123Z" fill="white"/>
<path d="M166.413 139.656H127.39C127.122 139.66 126.856 139.608 126.61 139.501C126.363 139.395 126.143 139.238 125.962 139.04C125.781 138.842 125.644 138.607 125.561 138.352C125.477 138.098 125.449 137.828 125.478 137.561L125.675 135.325C125.733 134.758 125.997 134.231 126.416 133.845C126.836 133.459 127.382 133.24 127.952 133.23H166.98C167.248 133.225 167.514 133.278 167.76 133.384C168.007 133.49 168.228 133.648 168.408 133.846C168.589 134.044 168.726 134.278 168.809 134.533C168.893 134.788 168.921 135.058 168.892 135.325L168.7 137.561C168.641 138.129 168.375 138.656 167.954 139.042C167.533 139.428 166.984 139.647 166.413 139.656Z" fill="white"/>
<path d="M165.574 149.27H126.546C126.278 149.274 126.012 149.222 125.766 149.116C125.52 149.009 125.299 148.852 125.119 148.654C124.938 148.455 124.802 148.221 124.719 147.966C124.637 147.711 124.609 147.442 124.638 147.175L124.831 144.939C124.89 144.372 125.154 143.846 125.573 143.461C125.992 143.075 126.538 142.855 127.108 142.844H166.135C166.404 142.839 166.67 142.892 166.916 142.998C167.162 143.104 167.383 143.262 167.564 143.46C167.745 143.658 167.882 143.892 167.965 144.147C168.049 144.402 168.077 144.672 168.048 144.939L167.851 147.175C167.792 147.742 167.528 148.267 167.108 148.653C166.689 149.039 166.143 149.258 165.574 149.27Z" fill="white"/>
<path opacity="0.1" d="M154.557 78.688C154.493 79.3177 154.2 79.9019 153.733 80.33C153.267 80.758 152.66 81.0002 152.027 81.0105C151.73 81.0159 151.434 80.9578 151.161 80.8402C150.888 80.7226 150.643 80.5481 150.442 80.3284C150.242 80.1086 150.09 79.8487 149.998 79.5658C149.906 79.283 149.875 78.9837 149.907 78.688C149.971 78.0583 150.264 77.4741 150.731 77.046C151.197 76.6179 151.804 76.3758 152.437 76.3655C152.734 76.3601 153.03 76.4182 153.303 76.5358C153.576 76.6534 153.821 76.8279 154.022 77.0476C154.222 77.2674 154.374 77.5273 154.466 77.8101C154.559 78.093 154.59 78.3922 154.557 78.688Z" fill="black"/>
<path opacity="0.1" d="M153.506 78.688C153.47 79.0318 153.31 79.3506 153.056 79.5845C152.801 79.8184 152.47 79.9513 152.125 79.9581C151.962 79.9613 151.801 79.9296 151.651 79.8654C151.502 79.8011 151.367 79.7057 151.258 79.5855C151.148 79.4653 151.065 79.323 151.015 79.1683C150.965 79.0135 150.948 78.8498 150.966 78.688C151.001 78.3439 151.161 78.0244 151.415 77.7903C151.67 77.5561 152.002 77.4237 152.347 77.418C152.51 77.4156 152.671 77.4478 152.82 77.5123C152.969 77.5768 153.103 77.6723 153.213 77.7923C153.322 77.9123 153.405 78.0543 153.455 78.2087C153.506 78.3631 153.523 78.5264 153.506 78.688Z" fill="black"/>
<g opacity="0.8">
<path d="M173.442 82.564C173.355 82.5652 173.268 82.5478 173.188 82.5131C173.108 82.4784 173.036 82.427 172.977 82.3625C172.919 82.2979 172.874 82.2216 172.847 82.1386C172.82 82.0555 172.811 81.9677 172.82 81.8809L172.931 80.6361C172.95 80.4522 173.035 80.2815 173.172 80.1565C173.308 80.0314 173.485 79.9608 173.67 79.9581C173.757 79.9569 173.843 79.9741 173.923 80.0086C174.002 80.043 174.074 80.0939 174.133 80.1579C174.192 80.2219 174.236 80.2976 174.264 80.38C174.291 80.4624 174.301 80.5496 174.292 80.6361L174.181 81.8809C174.163 82.0653 174.077 82.2366 173.941 82.3624C173.805 82.4882 173.628 82.5599 173.442 82.564Z" fill="white"/>
<path d="M178.888 82.564C178.8 82.5652 178.714 82.5479 178.634 82.5132C178.553 82.4784 178.482 82.4271 178.423 82.3625C178.364 82.2979 178.319 82.2216 178.292 82.1386C178.265 82.0556 178.256 81.9678 178.265 81.8809L178.523 78.9613C178.542 78.7774 178.627 78.6067 178.764 78.4817C178.9 78.3566 179.077 78.286 179.262 78.2833C179.349 78.2821 179.435 78.2993 179.515 78.3338C179.595 78.3682 179.666 78.4191 179.725 78.4831C179.784 78.5471 179.828 78.6227 179.856 78.7052C179.883 78.7876 179.893 78.8748 179.884 78.9613L179.626 81.8809C179.608 82.0653 179.523 82.2366 179.386 82.3625C179.25 82.4883 179.073 82.56 178.888 82.564Z" fill="white"/>
<path d="M176.165 82.564C176.078 82.5652 175.991 82.5479 175.911 82.5131C175.831 82.4784 175.759 82.427 175.7 82.3625C175.641 82.2979 175.597 82.2216 175.57 82.1386C175.542 82.0555 175.533 81.9677 175.543 81.8809L175.725 79.8012C175.743 79.6159 175.829 79.444 175.967 79.318C176.104 79.192 176.282 79.1209 176.469 79.1181C176.556 79.1168 176.642 79.1341 176.722 79.1689C176.802 79.2037 176.874 79.2551 176.932 79.3198C176.99 79.3845 177.034 79.4609 177.061 79.5439C177.087 79.6269 177.096 79.7146 177.086 79.8012L176.904 81.8809C176.885 82.0653 176.8 82.2366 176.664 82.3624C176.528 82.4883 176.35 82.56 176.165 82.564Z" fill="white"/>
</g>
<g opacity="0.8">
<path d="M126.825 82.564H123.404C123.355 82.5651 123.306 82.5555 123.261 82.5361C123.216 82.5167 123.175 82.4877 123.142 82.4513C123.109 82.4148 123.084 82.3717 123.069 82.3248C123.054 82.2779 123.049 82.2283 123.055 82.1794L123.212 80.3426C123.223 80.2384 123.272 80.1417 123.349 80.0709C123.427 80.0001 123.527 79.96 123.632 79.9581H127.053C127.102 79.957 127.151 79.9665 127.196 79.986C127.241 80.0054 127.282 80.0343 127.315 80.0708C127.348 80.1073 127.373 80.1504 127.388 80.1973C127.403 80.2442 127.407 80.2938 127.402 80.3426L127.24 82.1794C127.231 82.2837 127.184 82.3809 127.107 82.452C127.03 82.5232 126.929 82.5631 126.825 82.564Z" fill="white"/>
<path d="M128.409 82.063C128.359 82.064 128.31 82.0545 128.265 82.0351C128.219 82.0157 128.179 81.9868 128.145 81.9505C128.112 81.9141 128.086 81.8711 128.071 81.8242C128.055 81.7773 128.05 81.7276 128.055 81.6785L128.13 80.8385C128.14 80.7338 128.189 80.6365 128.267 80.5655C128.344 80.4945 128.445 80.4547 128.55 80.4539C128.6 80.4529 128.649 80.4624 128.694 80.4818C128.739 80.5013 128.78 80.5302 128.813 80.5666C128.846 80.6031 128.871 80.6462 128.886 80.6931C128.901 80.74 128.905 80.7896 128.9 80.8385L128.829 81.6785C128.818 81.7827 128.769 81.8794 128.691 81.9502C128.614 82.021 128.514 82.0611 128.409 82.063Z" fill="white"/>
</g>
<path d="M159.984 124.947C166.793 118.429 167.472 108.088 161.501 101.85C155.53 95.6125 145.169 95.8398 138.36 102.358C131.551 108.876 130.872 119.217 136.843 125.455C142.815 131.693 153.175 131.465 159.984 124.947Z" fill="white"/>
<path d="M149.23 113.03C144.939 113.03 141.311 114.665 141.002 118.212L140.658 122.153H156.208L156.552 118.212C156.86 114.665 153.526 113.03 149.23 113.03Z" fill="#407BFF"/>
<path d="M149.371 111.406C151.365 111.406 152.286 109.792 152.458 107.798C152.63 105.805 151.997 104.19 150.003 104.19C148.01 104.19 147.094 105.81 146.917 107.798C146.74 109.787 147.377 111.406 149.371 111.406Z" fill="#407BFF"/>
<path d="M164.631 136.306C163.574 136.306 162.678 136.711 162.607 137.586L162.521 138.563H166.362L166.448 137.586C166.519 136.711 165.694 136.306 164.631 136.306Z" fill="#407BFF"/>
<path d="M164.667 135.906C165.173 135.906 165.386 135.507 165.431 135.016C165.477 134.525 165.315 134.125 164.824 134.125C164.333 134.125 164.106 134.525 164.06 135.016C164.015 135.507 164.176 135.906 164.667 135.906Z" fill="#407BFF"/>
<path d="M152.812 158.884H137.632C137.22 158.891 136.811 158.811 136.433 158.648C136.055 158.486 135.716 158.244 135.438 157.94C135.161 157.636 134.951 157.277 134.823 156.886C134.695 156.494 134.652 156.08 134.697 155.671C134.787 154.801 135.192 153.994 135.836 153.402C136.48 152.81 137.319 152.474 138.193 152.458H153.373C153.785 152.451 154.193 152.532 154.57 152.695C154.948 152.858 155.287 153.099 155.565 153.403C155.842 153.707 156.052 154.066 156.18 154.457C156.308 154.848 156.352 155.262 156.308 155.671C156.219 156.541 155.814 157.349 155.17 157.941C154.525 158.533 153.686 158.869 152.812 158.884Z" fill="#407BFF"/>
<path d="M150.975 194.719H134.728C134.292 194.731 133.858 194.648 133.457 194.478C133.056 194.307 132.696 194.052 132.402 193.73C132.108 193.408 131.887 193.026 131.754 192.611C131.621 192.196 131.579 191.757 131.631 191.324L132.668 179.473C132.761 178.554 133.188 177.7 133.867 177.075C134.547 176.449 135.433 176.094 136.357 176.078H152.61C153.044 176.07 153.476 176.155 153.875 176.327C154.274 176.499 154.632 176.755 154.925 177.076C155.218 177.397 155.439 177.777 155.574 178.19C155.709 178.604 155.754 179.041 155.706 179.473L154.669 191.324C154.574 192.243 154.146 193.096 153.466 193.721C152.785 194.347 151.899 194.702 150.975 194.719Z" fill="#407BFF"/>
<g opacity="0.6">
<path d="M145.966 182.464C145.993 182.205 145.964 181.944 145.882 181.697C145.8 181.45 145.667 181.224 145.491 181.032C145.315 180.841 145.1 180.689 144.861 180.587C144.622 180.485 144.364 180.435 144.104 180.44C143.551 180.447 143.019 180.658 142.61 181.031C142.201 181.403 141.942 181.913 141.883 182.464C141.851 182.771 141.897 183.082 142.016 183.368C142.135 183.654 142.324 183.905 142.566 184.098L142.212 188.181C142.195 188.336 142.211 188.493 142.259 188.641C142.307 188.789 142.386 188.925 142.491 189.04C142.596 189.155 142.724 189.246 142.867 189.307C143.01 189.369 143.164 189.399 143.32 189.396C143.65 189.389 143.966 189.261 144.208 189.038C144.45 188.814 144.602 188.509 144.636 188.181L144.995 184.098C145.266 183.913 145.493 183.67 145.661 183.388C145.829 183.106 145.933 182.79 145.966 182.464Z" fill="white"/>
</g>
<path d="M152.752 178.547H150.657L151.163 172.683C151.251 171.869 151.165 171.045 150.911 170.267C150.657 169.489 150.24 168.773 149.689 168.169C149.137 167.564 148.463 167.083 147.711 166.759C146.959 166.434 146.147 166.273 145.329 166.287C143.589 166.321 141.922 166.99 140.641 168.168C139.361 169.346 138.555 170.952 138.376 172.683L137.87 178.547H135.775L136.281 172.683C136.517 170.386 137.585 168.254 139.285 166.691C140.984 165.128 143.197 164.241 145.506 164.197C146.592 164.179 147.67 164.391 148.668 164.821C149.666 165.252 150.561 165.889 151.294 166.692C152.027 167.494 152.58 168.443 152.918 169.476C153.256 170.509 153.37 171.602 153.253 172.683L152.752 178.547Z" fill="#407BFF"/>
<path d="M164.891 145.288L164.956 144.716C164.97 144.583 164.955 144.45 164.914 144.323C164.872 144.197 164.804 144.08 164.714 143.982C164.624 143.884 164.515 143.805 164.392 143.752C164.27 143.699 164.138 143.672 164.005 143.674C163.722 143.679 163.45 143.789 163.241 143.981C163.033 144.172 162.901 144.434 162.872 144.716L162.821 145.278C162.708 145.281 162.599 145.325 162.517 145.403C162.434 145.48 162.382 145.585 162.371 145.698L162.239 147.216C162.233 147.269 162.238 147.323 162.254 147.373C162.27 147.424 162.297 147.471 162.333 147.511C162.369 147.55 162.413 147.581 162.463 147.602C162.512 147.623 162.565 147.632 162.619 147.631H164.703C164.816 147.629 164.924 147.585 165.008 147.509C165.091 147.432 165.143 147.328 165.154 147.216L165.285 145.698C165.29 145.644 165.283 145.59 165.264 145.539C165.246 145.489 165.218 145.442 165.18 145.404C165.143 145.365 165.098 145.335 165.048 145.315C164.998 145.295 164.944 145.285 164.891 145.288ZM163.944 143.942C164.045 143.941 164.144 143.961 164.236 144C164.329 144.04 164.411 144.099 164.479 144.173C164.547 144.247 164.598 144.335 164.63 144.43C164.662 144.525 164.673 144.626 164.663 144.726L164.612 145.288H163.044L163.094 144.726C163.116 144.514 163.215 144.318 163.371 144.174C163.528 144.029 163.732 143.947 163.944 143.942Z" fill="#407BFF"/>
<path d="M133.508 145.89L132.779 145.738C132.759 145.734 132.74 145.725 132.723 145.713C132.707 145.7 132.694 145.684 132.684 145.665C132.675 145.647 132.67 145.626 132.67 145.606C132.67 145.585 132.674 145.565 132.683 145.546L132.987 144.827C132.999 144.796 133 144.762 132.99 144.73C132.98 144.698 132.958 144.671 132.93 144.653C132.901 144.636 132.867 144.629 132.834 144.634C132.801 144.639 132.771 144.655 132.749 144.681L132.197 145.247C132.184 145.264 132.167 145.278 132.148 145.287C132.128 145.296 132.107 145.301 132.086 145.301C132.064 145.301 132.043 145.296 132.024 145.287C132.005 145.278 131.988 145.264 131.975 145.247L131.524 144.681C131.428 144.559 131.221 144.681 131.256 144.827L131.433 145.546C131.438 145.567 131.439 145.589 131.435 145.61C131.432 145.631 131.424 145.652 131.412 145.67C131.4 145.688 131.385 145.703 131.366 145.715C131.348 145.727 131.328 145.735 131.307 145.738L130.553 145.89C130.391 145.92 130.371 146.148 130.527 146.178L131.256 146.33C131.276 146.334 131.296 146.343 131.312 146.355C131.328 146.368 131.342 146.384 131.351 146.403C131.359 146.422 131.364 146.442 131.363 146.463C131.363 146.484 131.357 146.504 131.347 146.522L131.054 147.246C131.041 147.277 131.04 147.312 131.05 147.343C131.061 147.375 131.082 147.402 131.11 147.42C131.139 147.438 131.173 147.444 131.206 147.439C131.239 147.434 131.269 147.418 131.291 147.393L131.843 146.826C131.857 146.811 131.874 146.798 131.894 146.79C131.913 146.782 131.933 146.777 131.954 146.777C131.975 146.777 131.996 146.782 132.015 146.79C132.034 146.798 132.051 146.811 132.066 146.826L132.516 147.393C132.612 147.514 132.82 147.393 132.779 147.246L132.602 146.527C132.595 146.485 132.604 146.44 132.629 146.405C132.653 146.369 132.691 146.344 132.734 146.335L133.488 146.183C133.644 146.148 133.665 145.92 133.508 145.89Z" fill="#263238"/>
<path d="M138.295 145.89L137.566 145.738C137.546 145.734 137.527 145.725 137.51 145.713C137.494 145.7 137.481 145.684 137.471 145.665C137.462 145.647 137.457 145.626 137.457 145.606C137.457 145.585 137.461 145.565 137.47 145.546L137.774 144.827C137.786 144.796 137.788 144.762 137.777 144.73C137.767 144.698 137.745 144.671 137.717 144.653C137.688 144.636 137.655 144.629 137.621 144.634C137.588 144.639 137.558 144.655 137.536 144.681L136.984 145.247C136.971 145.264 136.954 145.278 136.935 145.287C136.916 145.296 136.894 145.301 136.873 145.301C136.852 145.301 136.83 145.296 136.811 145.287C136.792 145.278 136.775 145.264 136.762 145.247L136.311 144.681C136.215 144.559 136.008 144.681 136.048 144.827L136.225 145.546C136.23 145.567 136.23 145.589 136.225 145.61C136.221 145.632 136.213 145.652 136.2 145.67C136.188 145.688 136.172 145.703 136.154 145.715C136.136 145.727 136.115 145.734 136.094 145.738L135.34 145.89C135.178 145.92 135.158 146.148 135.315 146.178L136.043 146.33C136.063 146.334 136.083 146.343 136.099 146.356C136.115 146.368 136.129 146.384 136.138 146.403C136.147 146.421 136.152 146.442 136.152 146.462C136.153 146.483 136.148 146.504 136.139 146.522L135.836 147.241C135.823 147.272 135.822 147.306 135.832 147.338C135.843 147.37 135.864 147.397 135.893 147.415C135.921 147.432 135.955 147.439 135.988 147.434C136.021 147.429 136.051 147.413 136.074 147.388L136.625 146.821C136.639 146.806 136.657 146.793 136.676 146.785C136.695 146.777 136.715 146.772 136.736 146.772C136.757 146.772 136.778 146.777 136.797 146.785C136.816 146.793 136.834 146.806 136.848 146.821L137.298 147.388C137.394 147.509 137.602 147.388 137.566 147.241L137.389 146.522C137.385 146.501 137.384 146.48 137.388 146.459C137.392 146.438 137.401 146.418 137.412 146.4C137.424 146.382 137.439 146.367 137.457 146.355C137.475 146.343 137.495 146.334 137.516 146.33L138.27 146.178C138.431 146.148 138.452 145.92 138.295 145.89Z" fill="#263238"/>
<path d="M143.081 145.89L142.357 145.738C142.336 145.735 142.317 145.727 142.3 145.714C142.283 145.702 142.269 145.686 142.259 145.667C142.25 145.648 142.245 145.627 142.245 145.606C142.246 145.585 142.251 145.564 142.261 145.546L142.565 144.827C142.584 144.795 142.59 144.756 142.581 144.72C142.572 144.683 142.549 144.652 142.517 144.633C142.484 144.613 142.446 144.607 142.409 144.616C142.373 144.625 142.341 144.648 142.322 144.681L141.775 145.247C141.762 145.264 141.744 145.278 141.725 145.287C141.705 145.297 141.683 145.301 141.661 145.301C141.64 145.301 141.618 145.297 141.598 145.287C141.579 145.278 141.561 145.264 141.548 145.247L141.097 144.681C141.001 144.559 140.794 144.681 140.834 144.827L141.011 145.546C141.016 145.567 141.016 145.588 141.012 145.609C141.008 145.63 141 145.65 140.988 145.668C140.976 145.686 140.961 145.702 140.943 145.714C140.926 145.726 140.906 145.734 140.885 145.738L140.131 145.89C139.969 145.92 139.949 146.148 140.106 146.178L140.829 146.33C140.849 146.334 140.868 146.343 140.885 146.356C140.901 146.368 140.915 146.384 140.924 146.403C140.933 146.421 140.938 146.442 140.938 146.463C140.939 146.483 140.934 146.504 140.925 146.522L140.622 147.241C140.602 147.273 140.596 147.312 140.605 147.348C140.614 147.385 140.638 147.416 140.67 147.436C140.702 147.455 140.741 147.461 140.777 147.452C140.814 147.443 140.845 147.42 140.865 147.388L141.411 146.821C141.425 146.806 141.442 146.793 141.462 146.785C141.481 146.777 141.501 146.772 141.522 146.772C141.543 146.772 141.564 146.777 141.583 146.785C141.602 146.793 141.619 146.806 141.634 146.821L142.089 147.388C142.185 147.509 142.393 147.388 142.352 147.241L142.175 146.522C142.167 146.48 142.176 146.437 142.2 146.401C142.223 146.365 142.26 146.34 142.302 146.33L143.056 146.178C143.197 146.148 143.238 145.92 143.081 145.89Z" fill="#263238"/>
<path d="M147.873 145.89L147.145 145.738C147.124 145.734 147.105 145.725 147.089 145.713C147.072 145.7 147.059 145.684 147.05 145.665C147.041 145.647 147.036 145.626 147.035 145.606C147.035 145.585 147.04 145.565 147.048 145.546L147.352 144.827C147.365 144.796 147.366 144.762 147.356 144.73C147.345 144.698 147.324 144.671 147.295 144.653C147.267 144.636 147.233 144.629 147.2 144.634C147.167 144.639 147.136 144.655 147.114 144.681L146.563 145.247C146.549 145.264 146.533 145.278 146.513 145.287C146.494 145.296 146.473 145.301 146.451 145.301C146.43 145.301 146.409 145.296 146.39 145.287C146.37 145.278 146.353 145.264 146.34 145.247L145.89 144.681C145.794 144.559 145.586 144.681 145.622 144.827L145.799 145.546C145.804 145.567 145.805 145.589 145.801 145.61C145.797 145.631 145.789 145.652 145.777 145.67C145.766 145.688 145.75 145.703 145.732 145.715C145.714 145.727 145.693 145.735 145.672 145.738L144.918 145.89C144.756 145.92 144.736 146.148 144.918 146.178L145.647 146.33C145.667 146.334 145.686 146.343 145.703 146.355C145.719 146.368 145.732 146.384 145.741 146.403C145.75 146.422 145.755 146.442 145.754 146.463C145.753 146.484 145.748 146.504 145.738 146.522L145.439 147.241C145.427 147.272 145.426 147.306 145.436 147.338C145.446 147.37 145.468 147.397 145.496 147.415C145.525 147.432 145.559 147.439 145.592 147.434C145.625 147.429 145.655 147.413 145.677 147.388L146.229 146.821C146.243 146.806 146.26 146.793 146.279 146.785C146.298 146.777 146.319 146.772 146.34 146.772C146.361 146.772 146.382 146.777 146.401 146.785C146.42 146.793 146.437 146.806 146.451 146.821L146.902 147.388C146.998 147.509 147.205 147.388 147.165 147.241L146.988 146.522C146.98 146.48 146.99 146.435 147.014 146.4C147.039 146.364 147.077 146.339 147.119 146.33L147.873 146.178C148.01 146.148 148.03 145.92 147.873 145.89Z" fill="#263238"/>
<path d="M152.66 145.89L151.931 145.738C151.911 145.734 151.892 145.725 151.876 145.713C151.859 145.7 151.846 145.684 151.837 145.665C151.827 145.647 151.822 145.626 151.822 145.606C151.822 145.585 151.826 145.565 151.835 145.546L152.139 144.827C152.152 144.796 152.153 144.762 152.142 144.73C152.132 144.698 152.111 144.671 152.082 144.653C152.054 144.636 152.02 144.629 151.987 144.634C151.953 144.639 151.923 144.655 151.901 144.681L151.35 145.247C151.336 145.264 151.319 145.278 151.3 145.287C151.281 145.296 151.26 145.301 151.238 145.301C151.217 145.301 151.196 145.296 151.176 145.287C151.157 145.278 151.14 145.264 151.127 145.247L150.677 144.681C150.58 144.559 150.373 144.681 150.413 144.827L150.591 145.546C150.595 145.567 150.595 145.589 150.591 145.61C150.586 145.632 150.578 145.652 150.566 145.67C150.553 145.688 150.538 145.703 150.519 145.715C150.501 145.727 150.48 145.734 150.459 145.738L149.705 145.89C149.543 145.92 149.523 146.148 149.68 146.178L150.408 146.33C150.429 146.334 150.448 146.343 150.464 146.356C150.481 146.368 150.494 146.384 150.503 146.403C150.513 146.421 150.517 146.442 150.518 146.462C150.518 146.483 150.513 146.504 150.505 146.522L150.201 147.241C150.188 147.272 150.187 147.306 150.198 147.338C150.208 147.37 150.229 147.397 150.258 147.415C150.286 147.432 150.32 147.439 150.353 147.434C150.386 147.429 150.417 147.413 150.439 147.388L150.99 146.821C151.005 146.806 151.022 146.793 151.041 146.785C151.06 146.777 151.081 146.772 151.102 146.772C151.123 146.772 151.143 146.777 151.162 146.785C151.182 146.793 151.199 146.806 151.213 146.821L151.663 147.388C151.759 147.509 151.967 147.388 151.931 147.241L151.754 146.522C151.75 146.501 151.75 146.48 151.754 146.459C151.758 146.438 151.766 146.418 151.778 146.4C151.789 146.382 151.804 146.367 151.822 146.355C151.84 146.343 151.86 146.334 151.881 146.33L152.635 146.178C152.812 146.148 152.812 145.92 152.66 145.89Z" fill="#263238"/>
<path d="M157.448 145.89L156.719 145.738C156.699 145.734 156.68 145.726 156.663 145.713C156.647 145.7 156.634 145.684 156.625 145.665C156.616 145.646 156.612 145.626 156.612 145.605C156.613 145.584 156.618 145.564 156.628 145.546L156.932 144.827C156.942 144.811 156.948 144.794 156.951 144.775C156.954 144.757 156.953 144.738 156.948 144.72C156.944 144.702 156.936 144.685 156.925 144.67C156.914 144.655 156.9 144.642 156.884 144.632C156.868 144.623 156.85 144.616 156.832 144.614C156.813 144.611 156.795 144.612 156.776 144.616C156.758 144.621 156.741 144.629 156.726 144.64C156.711 144.651 156.699 144.665 156.689 144.681L156.143 145.247C156.129 145.264 156.111 145.278 156.092 145.287C156.072 145.297 156.051 145.301 156.029 145.301C156.007 145.301 155.985 145.297 155.966 145.287C155.946 145.278 155.929 145.264 155.915 145.247L155.464 144.681C155.368 144.559 155.161 144.681 155.201 144.827L155.378 145.546C155.383 145.567 155.383 145.588 155.379 145.609C155.375 145.63 155.367 145.65 155.355 145.668C155.344 145.686 155.328 145.702 155.311 145.714C155.293 145.726 155.273 145.734 155.252 145.738L154.498 145.89C154.336 145.92 154.316 146.148 154.473 146.178L155.196 146.33C155.217 146.334 155.236 146.343 155.252 146.356C155.269 146.368 155.282 146.384 155.291 146.403C155.3 146.421 155.305 146.442 155.306 146.462C155.306 146.483 155.301 146.504 155.292 146.522L154.989 147.241C154.969 147.273 154.964 147.312 154.973 147.348C154.982 147.385 155.005 147.416 155.037 147.436C155.069 147.455 155.108 147.461 155.144 147.452C155.181 147.443 155.212 147.42 155.232 147.388L155.778 146.821C155.792 146.806 155.81 146.793 155.829 146.785C155.848 146.777 155.869 146.772 155.89 146.772C155.91 146.772 155.931 146.777 155.95 146.785C155.969 146.793 155.987 146.806 156.001 146.821L156.451 147.388C156.475 147.414 156.507 147.432 156.542 147.438C156.577 147.444 156.613 147.438 156.644 147.421C156.675 147.404 156.699 147.377 156.713 147.344C156.727 147.311 156.729 147.275 156.719 147.241L156.542 146.522C156.535 146.48 156.544 146.437 156.567 146.401C156.591 146.365 156.627 146.34 156.669 146.33L157.423 146.178C157.585 146.148 157.605 145.92 157.448 145.89Z" fill="#263238"/>
<path d="M145.906 135.411H136.919C136.644 135.415 136.379 135.521 136.176 135.707C135.973 135.894 135.845 136.148 135.816 136.423C135.802 136.552 135.815 136.682 135.855 136.806C135.895 136.93 135.962 137.043 136.049 137.139C136.137 137.235 136.244 137.311 136.364 137.362C136.483 137.413 136.612 137.438 136.742 137.435H145.729C146.005 137.43 146.269 137.324 146.472 137.138C146.676 136.951 146.803 136.697 146.832 136.423C146.845 136.294 146.832 136.163 146.791 136.04C146.751 135.917 146.684 135.804 146.597 135.708C146.509 135.612 146.402 135.536 146.283 135.485C146.164 135.434 146.036 135.408 145.906 135.411Z" fill="#263238"/>
<path d="M155.033 135.411H149.817C149.541 135.415 149.277 135.521 149.075 135.708C148.873 135.894 148.746 136.149 148.719 136.423C148.704 136.551 148.717 136.682 148.757 136.805C148.797 136.928 148.863 137.041 148.95 137.137C149.037 137.233 149.144 137.309 149.263 137.36C149.382 137.412 149.51 137.437 149.639 137.435H154.836C155.111 137.43 155.375 137.324 155.578 137.138C155.78 136.951 155.907 136.697 155.934 136.423C155.948 136.296 155.936 136.167 155.897 136.045C155.858 135.924 155.794 135.811 155.709 135.716C155.624 135.62 155.52 135.544 155.404 135.491C155.287 135.439 155.161 135.411 155.033 135.411Z" fill="#263238"/>
<path d="M161.921 181.28C158.744 182.489 155.877 184.391 153.526 186.846C152.099 185.737 150.397 185.038 148.603 184.822L148.365 184.786L148.264 185.98L148.395 186.031C150.363 186.755 152.027 188.125 153.116 189.917L153.288 190.2L153.475 189.897C155.571 186.551 158.528 183.832 162.037 182.023L162.153 181.963L162.219 181.173L161.921 181.28Z" fill="#263238"/>
<path opacity="0.2" d="M116.704 81.6533C116.059 82.7793 115.662 84.03 115.54 85.3218L108.006 171.453H131.322L136.008 153.495L134.465 135.532L139.15 117.574L137.632 99.6163L142.318 81.6533H116.704Z" fill="black"/>
<path d="M135.583 94.5563L140.269 76.5933H81.3049L76.6244 94.5563L78.1626 112.514L73.4821 130.472L75.0203 148.435L70.3398 166.393H129.299L133.985 148.435L132.441 130.472L137.127 112.514L135.583 94.5563Z" fill="#407BFF"/>
<path opacity="0.7" d="M135.583 94.5563L140.269 76.5933H81.3049L76.6244 94.5563L78.1626 112.514L73.4821 130.472L75.0203 148.435L70.3398 166.393H129.299L133.985 148.435L132.441 130.472L137.127 112.514L135.583 94.5563Z" fill="white"/>
<path opacity="0.5" d="M135.582 94.5563H76.623L81.3035 76.5933H140.268L135.582 94.5563Z" fill="white"/>
<path opacity="0.5" d="M132.44 130.472H73.4805L78.161 112.514H137.125L132.44 130.472Z" fill="white"/>
<path opacity="0.5" d="M129.298 166.393H70.334L75.0195 148.435H133.984L129.298 166.393Z" fill="white"/>
<path opacity="0.2" d="M127.694 102.06C127.089 102.235 126.462 102.32 125.832 102.313C124.978 102.351 124.128 102.177 123.358 101.807C123.219 101.725 123.06 101.681 122.898 101.681C122.749 101.683 122.603 101.721 122.472 101.792H122.442C122.216 101.919 121.975 102.016 121.724 102.081C121.157 102.23 120.574 102.303 119.988 102.298C119.811 102.298 119.639 102.298 119.482 102.298C119.028 102.269 118.578 102.189 118.141 102.06C118.077 102.041 118.011 102.029 117.944 102.025C117.833 102.016 117.721 102.03 117.615 102.066C117.509 102.102 117.412 102.16 117.33 102.236C117.248 102.311 117.182 102.403 117.137 102.505C117.092 102.607 117.069 102.718 117.068 102.829V103.376H94.1163C93.6945 103.376 93.277 103.459 92.8874 103.621C92.4979 103.782 92.144 104.019 91.846 104.317C91.5481 104.616 91.3119 104.97 91.151 105.36C90.99 105.75 90.9076 106.167 90.9082 106.589V109.822C90.9069 110.244 90.9889 110.663 91.1495 111.053C91.3101 111.443 91.5462 111.798 91.8442 112.097C92.1423 112.396 92.4964 112.633 92.8862 112.795C93.2761 112.957 93.6941 113.04 94.1163 113.04H120.19H120.362C120.641 113.273 120.934 113.506 121.248 113.744C121.562 113.982 122.007 114.311 122.417 114.604C122.557 114.705 122.725 114.76 122.898 114.76C123.07 114.76 123.238 114.705 123.378 114.604C126.657 112.226 128.762 110.586 128.762 106.083V102.845C128.764 102.715 128.734 102.587 128.677 102.471C128.619 102.355 128.534 102.255 128.43 102.178C128.325 102.101 128.204 102.051 128.076 102.03C127.948 102.01 127.818 102.02 127.694 102.06Z" fill="black"/>
<path d="M119.688 101.6H93.6194C91.8448 101.6 90.4062 103.038 90.4062 104.813V108.046C90.4062 109.821 91.8448 111.259 93.6194 111.259H119.688C121.463 111.259 122.902 109.821 122.902 108.046V104.813C122.902 103.038 121.463 101.6 119.688 101.6Z" fill="#407BFF"/>
<path d="M125.331 100.532C124.478 100.569 123.628 100.395 122.857 100.026C122.72 99.942 122.562 99.8975 122.402 99.8975C122.241 99.8975 122.083 99.942 121.946 100.026C121.174 100.396 120.322 100.569 119.467 100.532C118.837 100.539 118.21 100.454 117.605 100.279C117.483 100.238 117.353 100.227 117.226 100.246C117.099 100.265 116.978 100.314 116.873 100.39C116.769 100.465 116.684 100.564 116.626 100.678C116.567 100.793 116.537 100.92 116.537 101.048V104.287C116.537 108.795 118.642 110.435 121.921 112.813C122.061 112.914 122.229 112.968 122.402 112.968C122.574 112.968 122.743 112.914 122.882 112.813C126.161 110.435 128.266 108.795 128.266 104.287V101.048C128.266 100.919 128.235 100.793 128.175 100.678C128.116 100.564 128.031 100.465 127.926 100.39C127.822 100.315 127.701 100.266 127.573 100.246C127.446 100.227 127.316 100.238 127.193 100.279C126.588 100.454 125.961 100.539 125.331 100.532Z" fill="#407BFF"/>
<path opacity="0.3" d="M125.331 100.532C124.478 100.569 123.628 100.395 122.857 100.026C122.72 99.942 122.562 99.8975 122.402 99.8975C122.241 99.8975 122.083 99.942 121.946 100.026C121.174 100.396 120.322 100.569 119.467 100.532C118.837 100.539 118.21 100.454 117.605 100.279C117.483 100.238 117.353 100.227 117.226 100.246C117.099 100.265 116.978 100.314 116.873 100.39C116.769 100.465 116.684 100.564 116.626 100.678C116.567 100.793 116.537 100.92 116.537 101.048V104.287C116.537 108.795 118.642 110.435 121.921 112.813C122.061 112.914 122.229 112.968 122.402 112.968C122.574 112.968 122.743 112.914 122.882 112.813C126.161 110.435 128.266 108.795 128.266 104.287V101.048C128.266 100.919 128.235 100.793 128.175 100.678C128.116 100.564 128.031 100.465 127.926 100.39C127.822 100.315 127.701 100.266 127.573 100.246C127.446 100.227 127.316 100.238 127.193 100.279C126.588 100.454 125.961 100.539 125.331 100.532Z" fill="white"/>
<path opacity="0.2" d="M121.946 100.016C121.174 100.385 120.322 100.559 119.467 100.522C118.837 100.528 118.21 100.443 117.605 100.269C117.483 100.228 117.353 100.217 117.226 100.236C117.099 100.255 116.978 100.304 116.873 100.379C116.769 100.455 116.684 100.554 116.626 100.668C116.567 100.783 116.537 100.91 116.537 101.038V104.277C116.537 108.785 118.642 110.424 121.921 112.803C122.068 112.909 122.246 112.964 122.427 112.959V99.8845C122.257 99.8811 122.09 99.9268 121.946 100.016Z" fill="white"/>
<path d="M127.101 103.406C125.129 104.179 123.372 105.417 121.981 107.014C121.01 106.299 119.873 105.844 118.676 105.693H118.52V106.468L118.606 106.498C119.936 106.978 121.083 107.863 121.884 109.028L122.011 109.21L122.117 109.013C123.28 106.851 125.052 105.078 127.213 103.912L127.289 103.877V103.371L127.101 103.406Z" fill="#263238"/>
<path d="M139.226 81.6482H136.989C136.702 81.6536 136.416 81.5975 136.152 81.4837C135.887 81.37 135.65 81.2012 135.456 80.9886C135.262 80.776 135.116 80.5244 135.027 80.2508C134.938 79.9771 134.908 79.6876 134.94 79.4016L135.137 77.1651C135.198 76.5568 135.48 75.992 135.93 75.5778C136.379 75.1637 136.965 74.929 137.576 74.9184H139.813C140.101 74.9123 140.387 74.9679 140.652 75.0813C140.917 75.1947 141.155 75.3634 141.349 75.5761C141.544 75.7888 141.691 76.0406 141.78 76.3146C141.869 76.5887 141.899 76.8786 141.867 77.1651L141.67 79.4016C141.602 80.0078 141.317 80.569 140.868 80.9818C140.419 81.3946 139.836 81.6313 139.226 81.6482Z" fill="#407BFF"/>
<path d="M140.157 77.16L139.671 76.6237L138.447 77.747L137.425 76.6237L136.843 77.16L137.87 78.2833L136.65 79.4067L137.136 79.938L138.356 78.8146L139.383 79.938L139.96 79.4067L138.932 78.2833L140.157 77.16Z" fill="white"/>
<path d="M89.2431 100.942C90.5385 102.354 91.7731 103.816 93.0027 105.289C94.2323 106.761 95.4214 108.264 96.6054 109.772C96.656 109.837 96.6358 109.812 96.6459 109.832C96.656 109.853 96.6459 109.858 96.6459 109.863C96.6547 109.882 96.6667 109.899 96.6813 109.913C96.7245 109.975 96.7793 110.027 96.8427 110.067C96.9061 110.107 96.9768 110.134 97.0507 110.146C97.1078 110.154 97.1657 110.154 97.2227 110.146C97.2531 110.149 97.2835 110.149 97.3138 110.146H97.3594C97.3847 110.146 97.3594 110.146 97.4403 110.116L98.7053 109.428C100.405 108.527 102.121 107.647 103.892 106.857L105.374 108.694C103.947 110.004 102.46 111.649 100.957 112.853L99.8236 113.744C99.7532 113.801 99.6788 113.854 99.6009 113.901C99.515 113.962 99.4255 114.018 99.3328 114.068C99.1496 114.173 98.9604 114.268 98.766 114.351C98.374 114.516 97.9625 114.63 97.5415 114.69C96.6902 114.815 95.8212 114.728 95.0115 114.437C94.5997 114.291 94.2085 114.092 93.8477 113.845C93.6656 113.724 93.4935 113.582 93.3417 113.445C93.2557 113.374 93.1849 113.293 93.1039 113.218L92.9015 113.015C91.5606 111.639 90.2399 110.252 88.9446 108.841C87.6492 107.429 86.3691 106.007 85.1445 104.53L89.2431 100.942Z" fill="#B55B52"/>
<path d="M103.225 107.97L104.404 104.18L107.51 105.729C107.51 105.729 107.055 108.492 104.798 108.972L103.225 107.97Z" fill="#B55B52"/>
<path d="M105.643 103.133L108.446 103.902L107.505 105.729L104.398 104.18L105.643 103.133Z" fill="#B55B52"/>
<path d="M72.9102 101.974C72.5762 103.583 72.1613 105.177 71.7312 106.766C71.3011 108.355 70.8305 109.929 70.3397 111.502L70.1576 112.094L70.0665 112.388C70.0543 112.43 70.0373 112.471 70.0159 112.509C69.9582 112.672 69.9257 112.843 69.9197 113.015C69.9091 113.383 70.0115 113.745 70.2132 114.052C70.3128 114.187 70.4227 114.314 70.5421 114.432L70.9621 114.892L71.7919 115.818C72.3334 116.446 72.8798 117.073 73.396 117.731L71.63 119.755C70.9014 119.34 70.2031 118.89 69.5048 118.445L68.4675 117.756L67.9615 117.407C67.7895 117.286 67.6478 117.205 67.3695 116.977C66.3795 116.133 65.6963 114.986 65.4265 113.713C65.2907 113.065 65.2582 112.399 65.3303 111.74C65.3303 111.578 65.3809 111.396 65.4062 111.234L65.4619 110.93L65.5681 110.323C65.8515 108.699 66.1551 107.08 66.4941 105.471C66.8331 103.862 67.1975 102.258 67.6276 100.674L72.9102 101.974Z" fill="#B55B52"/>
<path d="M71.6641 117.569L73.7488 116.501L74.6697 120.043C74.6697 120.043 72.9948 120.686 71.6995 119.861L71.6641 117.569Z" fill="#B55B52"/>
<path d="M76.634 115.363L76.7302 118.622L74.3975 120.145L73.5879 116.567L76.634 115.363Z" fill="#B55B52"/>
<path d="M83.4588 85.2459C83.5094 85.4938 83.6865 85.6709 83.8485 85.6406C84.0104 85.6102 84.1065 85.3774 84.0559 85.1346C84.0053 84.8917 83.8282 84.7095 83.6663 84.7399C83.5044 84.7702 83.4082 85.0081 83.4588 85.2459Z" fill="#263238"/>
<path d="M83.6621 85.676C84.1176 86.3817 84.6675 87.0219 85.2965 87.5786C85.1501 87.7363 84.971 87.8601 84.7717 87.9414C84.5724 88.0227 84.3578 88.0595 84.1428 88.0492L83.6621 85.676Z" fill="#A02724"/>
<path d="M82.2594 84.0416C82.2302 84.0413 82.2018 84.0325 82.1775 84.0165C82.1531 84.0004 82.134 83.9776 82.1222 83.951C82.1105 83.9243 82.1067 83.8948 82.1113 83.866C82.1158 83.8372 82.1286 83.8103 82.148 83.7886C82.3065 83.6094 82.505 83.4701 82.7275 83.3822C82.9499 83.2942 83.1901 83.2601 83.4282 83.2826C83.4478 83.2863 83.4665 83.2937 83.4832 83.3046C83.4999 83.3155 83.5143 83.3295 83.5256 83.346C83.5369 83.3624 83.5448 83.3809 83.549 83.4005C83.5531 83.42 83.5533 83.4401 83.5497 83.4597C83.5466 83.4791 83.5397 83.4977 83.5293 83.5144C83.519 83.5311 83.5054 83.5455 83.4893 83.5568C83.4733 83.5681 83.4551 83.5761 83.4359 83.5803C83.4167 83.5845 83.3969 83.5848 83.3776 83.5811C83.1889 83.563 82.9985 83.5904 82.8225 83.6608C82.6465 83.7312 82.4898 83.8427 82.3656 83.9859C82.3386 84.0174 82.3006 84.0373 82.2594 84.0416Z" fill="#263238"/>
<path d="M76.1625 88.7727C76.7191 91.0952 77.2807 95.3507 75.2871 96.894C75.2871 96.894 76.0663 99.252 81.3591 99.252C87.1781 99.252 84.1421 97.734 84.1421 97.734C80.9644 97.1166 81.0454 94.3589 81.6121 92.5525L76.1625 88.7727Z" fill="#B55B52"/>
<path d="M74.6647 97.3241C74.3206 96.6815 73.936 95.9427 74.7254 95.71C75.5957 95.457 81.1769 94.9864 82.8214 95.462C82.3154 96.3577 83.1705 97.486 83.1705 97.486L74.6647 97.3241Z" fill="#263238"/>
<path d="M79.2891 205.902H82.9373L83.3016 198.554H79.6483L79.2891 205.902Z" fill="#B55B52"/>
<path d="M56.1211 204.89L59.82 205.087L62.0666 197.846L58.3677 197.649L56.1211 204.89Z" fill="#B55B52"/>
<path d="M59.7077 204.793L56.2214 204.04C56.1603 204.026 56.0964 204.033 56.0402 204.061C55.984 204.088 55.939 204.134 55.9127 204.191L54.7034 206.817C54.6736 206.881 54.6589 206.951 54.6602 207.021C54.6616 207.092 54.6791 207.161 54.7114 207.223C54.7436 207.286 54.7898 207.34 54.8463 207.382C54.9028 207.424 54.9681 207.452 55.0374 207.465C56.2568 207.708 56.864 207.764 58.3972 208.098C59.3384 208.3 61.4686 208.821 62.769 209.11C64.0695 209.398 64.5198 208.143 64.0138 207.91C61.7368 206.873 60.7855 205.957 60.1682 205.102C60.0574 204.947 59.8937 204.837 59.7077 204.793Z" fill="#263238"/>
<path d="M82.7453 205.532H79.2792C79.2165 205.533 79.1559 205.555 79.1072 205.594C79.0586 205.634 79.0246 205.689 79.011 205.75L78.3835 208.568C78.3673 208.636 78.3669 208.707 78.3824 208.776C78.3978 208.844 78.4287 208.908 78.4726 208.963C78.5166 209.018 78.5724 209.062 78.6359 209.091C78.6994 209.121 78.7688 209.136 78.8389 209.135C80.0888 209.135 81.8749 209.039 83.4688 209.039C85.3056 209.039 86.8894 209.14 89.0348 209.14C90.3353 209.14 90.6996 207.824 90.1531 207.703C87.6686 207.162 85.6446 207.101 83.4992 205.78C83.275 205.631 83.0144 205.545 82.7453 205.532Z" fill="#263238"/>
<path d="M68.6734 97.9668C65.9208 99.2773 65.1719 107.221 65.1719 107.221L71.9877 110.369C73.1398 108.426 73.7675 106.216 73.8093 103.958C73.9459 99.8541 71.4918 96.6461 68.6734 97.9668Z" fill="#263238"/>
<path opacity="0.4" d="M72.3569 102.865C71.1273 104.777 71.2437 107.732 71.6687 110.227L71.9723 110.369C73.1233 108.425 73.7509 106.216 73.7939 103.958C73.7939 103.715 73.7939 103.452 73.7939 103.234L72.3569 102.865Z" fill="black"/>
<path d="M87.6953 97.7745C87.6953 97.7745 91.0753 101.59 87.8825 125.2H70.9163C70.7999 122.594 72.4343 109.888 69.9043 97.6126C71.7794 97.2519 73.6758 97.0119 75.5816 96.894C77.9849 96.7573 80.3939 96.7573 82.7972 96.894C84.45 97.0615 86.0876 97.3558 87.6953 97.7745Z" fill="#407BFF"/>
<path opacity="0.6" d="M87.6953 97.7745C87.6953 97.7745 91.0753 101.59 87.8825 125.2H70.9163C70.7999 122.594 72.4343 109.888 69.9043 97.6126C71.7794 97.2519 73.6758 97.0119 75.5816 96.894C77.9849 96.7573 80.3939 96.7573 82.7972 96.894C84.45 97.0615 86.0876 97.3558 87.6953 97.7745Z" fill="#FAFAFA"/>
<path opacity="0.2" d="M89.1771 104.99L89.1164 104.934L85.7414 103.133C85.3973 108.33 87.7198 111.588 89.1012 113.01C89.2744 110.34 89.2997 107.663 89.1771 104.99Z" fill="black"/>
<path opacity="0.2" d="M83.3034 198.554L83.1162 202.344H79.4629L79.6501 198.554H83.3034Z" fill="black"/>
<path opacity="0.2" d="M58.3677 197.654L62.0666 197.846L60.9078 201.58L57.209 201.383L58.3677 197.654Z" fill="black"/>
<path d="M74.989 86.4147C75.8036 89.4507 76.1275 91.2774 78.025 92.5424C80.8485 94.4449 84.3601 92.259 84.4714 89.0358C84.5676 86.1364 83.2216 81.6482 79.9579 81.0359C79.2373 80.8934 78.4923 80.9379 77.7938 81.1654C77.0954 81.3928 76.467 81.7955 75.9685 82.3351C75.4701 82.8746 75.1183 83.5329 74.9469 84.2472C74.7754 84.9614 74.7899 85.7077 74.989 86.4147Z" fill="#B55B52"/>
<path d="M81.8658 125.2C81.8658 125.2 78.2631 149.442 76.2998 158.53C74.124 168.498 62.5164 201.388 62.5164 201.388L56.834 200.158C56.834 200.158 64.1153 173.34 65.942 159.436C66.6504 154.006 67.5055 145.268 68.5884 137.966C69.6358 130.882 70.9261 125.205 70.9261 125.205L81.8658 125.2Z" fill="#263238"/>
<path d="M63.878 199.491L62.8154 201.545L56.4297 200.158L56.9661 198.241L63.878 199.491Z" fill="#407BFF"/>
<path opacity="0.6" d="M63.878 199.491L62.8154 201.545L56.4297 200.158L56.9661 198.241L63.878 199.491Z" fill="white"/>
<path opacity="0.6" d="M79.5893 133.837C75.4249 134.652 75.8652 150.181 76.3661 158.165C77.5704 152.519 79.3262 141.66 80.5254 133.948C80.2352 133.805 79.9049 133.766 79.5893 133.837Z" fill="black"/>
<path d="M87.8827 125.2C87.8827 125.2 89.5778 148.921 89.2337 158.596C88.8745 168.66 84.1029 201.606 84.1029 201.606H78.7292C78.7292 201.606 78.5318 169.222 78.294 159.36C78.0309 148.582 76.7305 125.195 76.7305 125.195L87.8827 125.2Z" fill="#263238"/>
<path d="M85.1335 199.47C85.1588 199.47 84.8298 201.702 84.8298 201.702H78.2923L78.1152 199.708L85.1335 199.47Z" fill="#407BFF"/>
<path opacity="0.6" d="M85.1335 199.47C85.1588 199.47 84.8298 201.702 84.8298 201.702H78.2923L78.1152 199.708L85.1335 199.47Z" fill="white"/>
<path d="M85.7168 102.212C85.7168 108.578 89.1019 111.199 89.1019 111.199L94.6224 105.825C93.3157 103.641 91.8279 101.571 90.1747 99.6366C86.9818 95.9782 85.7168 98.1236 85.7168 102.212Z" fill="#263238"/>
<path opacity="0.2" d="M84.2588 90.1895C84.1462 90.5085 83.9573 90.7951 83.7086 91.0244C83.4599 91.2537 83.1589 91.4187 82.8318 91.505C82.4721 91.5784 82.1455 91.7657 81.9003 92.039C81.6552 92.3124 81.5046 92.6574 81.4707 93.023C82.1259 92.804 82.72 92.433 83.2045 91.9406C83.6891 91.4481 84.0503 90.8481 84.2588 90.1895Z" fill="black"/>
<path d="M82.8312 80.368C83.9646 78.9361 82.2189 78.85 82.2189 78.85C82.6743 77.1448 80.6301 78.0607 80.6301 78.0607C79.4056 76.3706 78.7123 78.4301 78.7123 78.4301C77.4423 76.9981 77.1943 79.3358 77.1943 79.3358C75.9192 77.5193 75.2715 80.1403 75.2715 80.1403C74.0976 78.253 73.3791 80.7071 73.3791 80.7071C70.9554 79.8418 72.104 82.3617 72.104 82.3617C70.0395 82.4173 71.6992 84.0214 71.6992 84.0214C69.2198 84.0214 71.4057 85.4432 71.4057 85.4432C69.4374 86.7335 71.9117 87.0827 71.9117 87.0827C70.3077 89.6127 73.0654 88.6614 73.0654 88.6614C71.9471 91.1509 74.4215 90.0529 74.4215 90.0529C74.2646 92.4513 75.646 91.7986 76.3139 91.3533C76.4404 91.8593 76.6833 92.3653 77.1286 92.4058C77.9938 92.5222 78.1406 90.8878 78.1406 90.8878C78.1406 90.8878 78.94 91.5152 79.613 91.1762C80.286 90.8372 80.033 89.982 80.033 89.982C80.1791 90.0913 80.3566 90.1503 80.539 90.1503C80.7214 90.1503 80.8989 90.0913 81.045 89.982C81.3334 89.7594 81.3334 88.1503 80.9691 87.5836L82.2847 87.0776C82.2847 87.0776 83.2613 86.941 82.8261 85.6507C82.5635 84.9091 82.5405 84.1037 82.7603 83.3484C84.248 82.6501 83.0235 81.8304 83.0235 81.8304C84.7489 80.7222 82.8312 80.368 82.8312 80.368Z" fill="#263238"/>
<path d="M80.1651 86.526C80.3711 87.2809 80.8213 87.9464 81.4453 88.4185C82.2701 89.0358 82.8874 88.4185 82.8267 87.4925C82.7761 86.6525 82.2802 85.3217 81.3694 85.0687C80.4586 84.8157 79.9475 85.6304 80.1651 86.526Z" fill="#B55B52"/>
</svg>
